<?xml version="1.0" standalone="no"?>
<!DOCTYPE svg PUBLIC "-//W3C//DTD SVG 1.1//EN" "http://www.w3.org/Graphics/SVG/1.1/DTD/svg11.dtd" >
<svg xmlns="http://www.w3.org/2000/svg">
<metadata>Generated by IcoMoon</metadata>
<defs>
<font id="Sparkicons" horiz-adv-x="1024">
<font-face units-per-em="1024" ascent="960" descent="-64" />
<missing-glyph horiz-adv-x="1024" />
<glyph unicode="&#x20;" horiz-adv-x="512" d="" />
<glyph unicode="&#xe600;" glyph-name="calendar-1" d="M0-42.667c0-11.776 9.6-21.333 21.333-21.333h981.333c11.776 0 21.333 9.557 21.333 21.333v661.333h-1024v-661.333zM490.667 469.333c0 11.776 9.6 21.333 21.333 21.333h213.333c6.997 0 13.568-3.413 17.536-9.173s4.864-13.099 2.475-19.669l-53.205-141.824h11.861c11.776 0 21.333-9.557 21.333-21.333s-9.557-21.333-21.333-21.333h-27.861l-58.795-156.843c-3.243-8.576-11.349-13.824-20.011-13.824-2.517 0-4.992 0.384-7.509 1.323-11.008 4.181-16.597 16.469-12.501 27.52l53.248 141.824h-54.571c-11.733 0-21.333 9.557-21.333 21.333s9.6 21.333 21.333 21.333h70.571l48 128h-161.237v-21.333c0-11.776-9.557-21.333-21.333-21.333-11.733 0-21.333 9.557-21.333 21.333v42.667zM335.104 368.896c-8.32-8.32-21.845-8.32-30.165 0s-8.32 21.845 0 30.165l85.333 85.333c6.101 6.144 15.232 8.021 23.253 4.608 7.979-3.243 13.141-11.051 13.141-19.669v-320h64c11.776 0 21.333-9.557 21.333-21.333s-9.557-21.333-21.333-21.333h-170.667c-11.733 0-21.333 9.557-21.333 21.333s9.6 21.333 21.333 21.333h64v268.501l-48.896-48.939zM1002.667 874.667h-149.333v64c0 11.776-9.557 21.333-21.333 21.333h-128c-11.733 0-21.333-9.557-21.333-21.333v-64h-341.333v64c0 11.776-9.557 21.333-21.333 21.333h-128c-11.733 0-21.333-9.557-21.333-21.333v-64h-149.333c-11.733 0-21.333-9.557-21.333-21.333v-192h1024v192c0 11.776-9.557 21.333-21.333 21.333zM298.667 789.333h-85.333v128h85.333v-128zM810.667 789.333h-85.333v128h85.333v-128z" />
<glyph unicode="&#xe601;" glyph-name="logo-apple" d="M760.405 393.045c-1.152 117.76 96 174.251 100.437 177.067-54.656 79.872-139.776 90.837-170.069 92.117-72.405 7.339-141.269-42.624-178.048-42.624-36.608 0-93.355 41.557-153.387 40.491-78.976-1.237-151.765-45.909-192.427-116.608-81.963-142.251-20.907-353.067 59.008-468.523 38.997-56.448 85.632-119.893 146.731-117.547 58.923 2.304 81.152 38.059 152.32 38.059 71.211 0 91.179-38.059 153.515-36.907 63.317 1.109 103.509 57.515 142.251 114.176 44.885 65.579 63.317 128.981 64.427 132.267-1.451 0.64-123.52 47.403-124.757 188.032zM650.88 781.952c34.261 41.557 57.387 99.2 51.115 156.715-49.365-2.005-109.184-32.811-144.597-74.283-31.744-36.779-59.52-95.445-52.096-151.893 55.083-4.267 111.275 28.032 145.579 69.461z" />
<glyph unicode="&#xe602;" glyph-name="logo-dropbox" d="M21.333 403.84l288.683-188.331 201.984 168.491-291.072 179.627zM310.016 911.701l-288.683-188.245 199.595-159.829 291.072 179.627zM1002.667 723.456l-288.683 188.245-201.984-168.448 291.072-179.627zM512 384l201.984-168.491 288.683 188.331-199.595 159.787zM756.053 192v0c-14.592-9.515-25.771-19.157-42.027-19.157-17.408 0-25.131 7.979-38.4 19.157v0l-163.627 136.405-163.584-136.405c-13.312-11.179-20.992-19.157-38.4-19.157-8.064 0-16.171 2.304-23.296 6.955-0.597 0.384-50.944 33.195-52.011 33.92v-83.499l277.931-173.397 276.736 173.397v83.499l-33.323-21.717z" />
<glyph unicode="&#xe603;" glyph-name="email-send-1" d="M13.184 510.379c-8.064-3.328-13.269-11.221-13.184-19.968 0.085-8.661 5.461-16.469 13.611-19.584l354.219-137.771 619.904 579.84-974.549-402.517zM384.427 290.133l-0.427 0.427v-290.56c0-11.691 9.429-21.333 21.333-21.333 7.424 0 14.549 3.925 18.432 10.581l140.245 240.469 257.707-141.739c6.059-3.371 13.269-3.456 19.115-0.725 6.144 2.773 10.581 8.277 11.989 14.891l169.728 784.896-638.123-596.907z" />
<glyph unicode="&#xe604;" glyph-name="logo-everynote" d="M110.848 768l166.485 161.707v-161.707h-166.485zM833.408 808.661c-16.981 29.227-105.685 62.933-151.723 62.933h-118.613c0 0-25.515 68.437-115.072 68.437s-85.333-39.083-85.333-73.173v-137.899l-46.208-44.459h-187.563c0 0-58.027-33.749-58.027-109.312s23.424-338.773 180.821-363.136c186.24-28.843 218.112 57.685 218.112 68.096 0 43.819 1.067 110.251 1.067 110.251s54.571-104.192 136.917-104.192 130.261-47.36 130.261-96.043v-90.155c0 0-3.072-56.363-51.499-56.363h-103.296c0 0-33.92 26.368-33.92 62.891 0 36.565 16.597 46.507 35.925 46.507 19.371 0 35.243-2.261 35.243-2.261v76.843c0 0-155.947 0.981-155.947-118.4 0.043-119.339 81.579-150.016 146.987-150.016h106.539c0 0 192.427 24.747 192.427 404.736-0.043 380.117-60.16 415.488-77.099 444.715zM642.091 467.968c0 0 9.387 62.72 45.696 62.72s86.272-83.797 86.272-83.797-113.835 21.077-131.968 21.077z" />
<glyph unicode="&#xe605;" glyph-name="heart" d="M512 766.144c-170.656 256-512 106.144-512-172.704 0-188.672 170.496-323.2 298.656-424.608 133.344-105.44 170.656-128 213.344-170.688 42.688 42.688 78.304 67.488 213.344 170.688 130.048 99.328 298.656 238.016 298.656 426.656 0 276.8-341.344 426.624-512 170.656z" />
<glyph unicode="&#xe606;" glyph-name="search" d="M1024 576c0-212.128-171.872-384-384-384-75.84 0-145.792 21.312-205.024 59.264l-289.216-290.336c-16.576-16.608-39.104-24.928-60.416-24.928-22.56 0-43.872 8.32-60.48 24.896-33.184 33.152-33.184 87.712 0 120.864l290.368 289.216c-37.92 59.232-59.264 129.184-59.264 205.024 0 212.192 171.872 384 384.032 384 212.128 0 384-171.808 384-384zM895.968 576c0 141.024-114.944 256.032-255.968 256.032-141.056 0-256-115.008-256-256.032s114.944-255.968 256-255.968c141.024 0 255.968 114.944 255.968 255.968z" />
<glyph unicode="&#xe607;" glyph-name="navigation-drawer-1" d="M172.501 682.667h638.165c23.595 0 42.667 19.115 42.667 42.667s-19.072 42.667-42.667 42.667h-638.165c-23.595 0-42.667-19.115-42.667-42.667s19.072-42.667 42.667-42.667zM810.667 597.333h-638.165c-23.595 0-42.667-19.115-42.667-42.667s19.072-42.667 42.667-42.667h638.165c23.595 0 42.667 19.115 42.667 42.667s-19.072 42.667-42.667 42.667zM810.667 426.667h-638.165c-23.595 0-42.667-19.115-42.667-42.667s19.072-42.667 42.667-42.667h638.165c23.595 0 42.667 19.115 42.667 42.667s-19.072 42.667-42.667 42.667zM810.667 256h-638.165c-23.595 0-42.667-19.115-42.667-42.667s19.072-42.667 42.667-42.667h638.165c23.595 0 42.667 19.115 42.667 42.667s-19.072 42.667-42.667 42.667z" />
<glyph unicode="&#xe608;" glyph-name="logo-linkedin" d="M278.485 42.667h-213.333v554.667h213.333v-554.667zM171.435 682.667h-1.28c-64.427 0-106.155 50.432-106.155 105.856 0 56.704 43.008 102.912 108.672 102.912 65.749 0 106.155-47.701 107.477-104.405-0.043-55.467-41.728-104.363-108.715-104.363zM662.485 426.667c-47.147 0-85.333-38.229-85.333-85.333v-298.667h-213.333c0 0 2.517 512 0 554.667h213.333v-63.36c0 0 66.048 61.568 168.021 61.568 126.379 0 215.979-91.477 215.979-268.971v-283.904h-213.333v298.667c0 47.104-38.187 85.333-85.333 85.333z" />
<glyph unicode="&#xe609;" glyph-name="eye" d="M597.344 448c0-47.134-38.21-85.344-85.344-85.344s-85.344 38.21-85.344 85.344c0 47.134 38.21 85.344 85.344 85.344s85.344-38.21 85.344-85.344zM512 789.344c-282.752 0-512-341.344-512-341.344s229.248-341.344 512-341.344 512 341.344 512 341.344-229.248 341.344-512 341.344zM512 234.656c-117.824 0-213.312 95.552-213.312 213.344 0 117.824 95.488 213.344 213.312 213.344s213.312-95.52 213.312-213.344c0-117.792-95.488-213.344-213.312-213.344z" />
<glyph unicode="&#xe60a;" glyph-name="angellist" d="M262.496 367.52c-4.032 10.624-7.936 20.736-11.744 30.88-15.584 41.664-8.64 70.24 26.016 103.712 16.576 16.032 36.352 26.56 59.744 29.344 19.232 2.304 36.736-2.336 53.12-12.192 1.984-1.184 3.936-2.496 7.328-4.672-1.056 3.264-1.664 5.28-2.336 7.264-24.96 75.84-50.496 151.456-74.592 227.552-9.568 30.208-17.184 61.152-23.36 92.192-5.28 26.56-2.368 53.12 10.272 77.824 18.048 35.36 53.632 44.576 79.552 39.104 17.44-3.68 30.304-15.328 39.52-29.6 16.256-25.216 32.096-50.816 45.952-77.376 29.152-56.032 50.112-115.552 70.592-175.168 9.344-27.168 18.432-54.432 27.648-81.664 0.544-1.568 1.216-3.104 2.4-6.016 2.816 6.208 5.472 11.136 7.328 16.384 10.752 30.272 20.96 60.768 31.968 90.944 22.4 61.504 47.232 122.016 82.112 177.728 9.888 15.808 21.088 31.104 33.472 44.992 34.912 39.168 86.528 23.264 108.384-12.608 12.96-21.248 15.968-44.256 13.28-68.32-4.352-38.944-15.264-76.48-27.136-113.536-20.768-64.864-43.232-129.184-64.992-193.696-0.736-2.176-1.504-4.32-2.432-7.008 6.208-1.728 11.872-3.424 17.568-4.896 51.648-13.408 81.088-47.232 91.744-98.816 6.848-33.28 7.296-66.848 5.76-100.576-1.888-41.632-6.688-82.816-19.712-122.656-31.712-97.216-90.048-172.64-181.536-220.64-38.336-20.096-79.328-31.968-122.208-37.056-68.192-8.096-134.048 0.64-198.016 26.272-78.208 31.328-157.152 114.464-180.992 189.248-11.488 36-17.088 72.48-11.264 110.208 7.712 49.664 35.744 81.632 83.68 96.256 7.328 2.176 14.72 4.224 22.88 6.592zM442.688 173.024c0.896-3.712 1.504-6.144 2.112-8.608 6.528-27.2-3.84-53.632-27.232-69.024-21.408-14.080-44.608-14.688-68.16-7.584-37.984 11.456-65.92 36.448-88.384 68.192-9.952 14.080-17.28 29.408-19.712 46.656-1.632 11.648-0.992 22.88 8.32 32.736 3.328-3.904 6.528-7.296 9.344-10.944 10.528-13.696 20.736-27.648 31.456-41.152 12.8-16.096 26.592-31.264 45.632-40.256 15.712-7.424 31.744-7.744 47.52-0.192 12.192 5.856 16.416 15.712 12.448 28.576-1.632 5.28-3.68 10.464-6.272 15.36-16.992 32.224-37.92 61.76-62.752 88.384-12.896 13.824-26.432 27.232-40.768 39.552-12.736 10.944-27.808 10.944-41.472 1.472-20.576-14.24-35.616-33.184-41.248-58.048-5.792-25.632-3.264-51.2 5.92-75.52 23.456-62.208 62.4-113.536 117.728-149.952 82.272-54.144 172.992-64.8 265.792-35.168 107.36 34.272 173.44 112.128 209.312 216.768 14.72 42.912 17.312 88.064 18.336 133.12 0.544 24.384-1.088 48.512-7.808 72.192-6.144 21.696-18.24 38.464-38.912 48-14.656 6.752-29.472 13.504-44.768 18.56-65.92 21.792-134.368 28.704-203.136 33.376-16.16 1.088-32.416 0.96-48.192-3.808-12.256-3.712-19.936-11.648-21.056-24.512-2.464-28.352 7.488-51.36 31.072-67.872 17.248-12.096 36.864-18.56 57.216-22.72 47.104-9.632 94.784-10.336 142.624-8.352 10.528 0.448 21.44 0.064 31.648-2.272 10.976-2.528 14.88-12.704 16.864-22.816 1.76-9.12-5.504-13.152-11.84-16.16-13.024-6.208-26.336-12-39.936-16.928-56.448-20.416-98.304-57.984-128.064-109.28-21.632-37.28-26.592-76.8-11.488-118.048 3.52-9.568 6.336-19.456 8.736-29.376 2.464-10.272 3.52-20.736 1.6-31.776-22.272 4.224-37.856 16.288-48 35.52-9.92 18.816-13.472 39.392-15.584 60.224-1.152 11.328-1.888 22.688-2.944 35.552-14.944-9.472-30.208-6.784-45.952-3.872zM528.288 559.776c-0.256 0.992-0.448 2.016-0.768 2.976-21.984 64.416-43.424 129.056-66.208 193.216-14.080 39.68-29.952 78.72-45.632 117.824-5.152 12.864-12.544 24.768-24.192 33.184-18.464 13.344-40.256 7.040-47.296-14.496-2.976-9.12-4.384-19.2-4.192-28.8 0.512-27.232 6.56-53.76 15.328-79.36 24.192-70.624 49.312-140.96 74.112-211.392 2.432-6.912 5.184-13.728 7.648-20.224 29.536 18.272 60.704 6.496 91.2 7.072zM616.224 549.984c29.76-5.088 58.432-9.984 87.264-14.912 8.8 24.128 17.792 47.136 25.632 70.528 23.136 69.024 46.016 138.176 68.512 207.392 5.44 16.672 8.384 34.016 4.096 51.648-6.72 27.552-33.184 36.384-53.632 16.8-9.472-9.088-17.536-20.544-23.36-32.352-10.688-21.728-20.352-44.128-28.448-66.944-26.144-73.824-51.36-147.968-76.928-221.984-1.024-3.2-1.952-6.4-3.136-10.176zM493.728 255.104c-1.856 7.84-2.656 16.128-5.728 23.424-13.504 31.904-26.72 63.968-41.888 95.072-14.272 29.28-30.912 57.408-52.96 81.792-10.976 12.16-23.2 22.944-40.064 25.792-24.096 4.064-55.488-21.184-58.912-46.944-0.32-2.496-0.736-5.248-0.064-7.584 3.616-12.384 6.112-25.408 11.648-36.928 25.152-52.096 60.384-97.12 100.416-138.528 11.712-12.128 24.576-23.136 40.736-29.12 23.232-8.576 46.208 7.936 46.816 33.024zM502.624 365.184c11.488-29.344 22.624-57.792 33.472-85.568 11.136 11.616 21.632 23.648 33.28 34.464 11.712 10.88 24.512 20.576 37.504 31.328-35.872 2.592-70.496 7.168-104.256 19.776z" />
<glyph unicode="&#xe60b;" glyph-name="sass" d="M881.248 390.624c-35.776-0.192-66.784-8.768-92.768-21.6-9.504 18.976-19.136 35.648-20.736 48.064-1.888 14.496-4.064 23.136-1.792 40.384s12.256 41.696 12.128 43.52-2.24 10.624-22.88 10.784c-20.64 0.16-38.304-3.968-40.384-9.408s-6.048-17.728-8.512-30.496c-3.616-18.72-41.216-85.472-62.56-120.384-6.976 13.632-12.928 25.664-14.144 35.168-1.888 14.496-4.064 23.136-1.792 40.384s12.256 41.696 12.128 43.52c-0.16 1.824-2.24 10.624-22.88 10.784s-38.304-3.968-40.384-9.408c-2.080-5.44-4.288-18.176-8.512-30.496s-54.208-123.68-67.296-152.544c-6.656-14.72-12.48-26.528-16.576-34.592 0 0.032-0.032 0.032-0.032 0.032s-0.256-0.544-0.672-1.44c-3.52-6.88-5.6-10.656-5.6-10.656s0.032-0.064 0.064-0.128c-2.784-5.056-5.76-9.728-7.232-9.728-1.024 0-3.104 13.44 0.448 31.84 7.424 38.624 25.312 98.88 25.12 100.96-0.096 1.056 3.328 11.552-11.68 17.056-14.56 5.344-19.744-3.552-21.088-3.584-1.28-0.032-2.24-3.136-2.24-3.136s16.224 67.744-30.944 67.744c-29.504 0-70.368-32.288-90.528-61.536-12.704-6.944-39.904-21.792-68.768-37.632-11.072-6.080-22.4-12.32-33.12-18.208-0.736 0.8-1.44 1.6-2.208 2.432-57.216 61.056-162.976 104.224-158.496 186.304 1.632 29.824 12 108.384 203.232 203.68 156.672 78.048 282.080 56.576 303.744 8.96 30.944-68-67.040-194.432-229.728-212.672-61.984-6.944-94.624 17.088-102.752 26.016-8.544 9.408-9.824 9.856-13.024 8.064-5.184-2.88-1.888-11.2 0-16.16 4.864-12.64 24.8-35.072 58.784-46.208 29.888-9.824 102.656-15.2 190.688 18.848 98.56 38.144 175.552 144.192 152.928 232.864-22.976 90.176-172.512 119.808-314.016 69.536-84.192-30.048-175.36-76.992-240.928-138.304-77.952-72.896-90.368-136.352-85.248-162.848 18.208-94.208 148.032-155.552 200.032-201.024-2.56-1.408-4.96-2.752-7.168-3.968-26.080-12.896-125.024-64.704-149.792-119.424-28.096-62.080 4.48-106.624 26.016-112.608 66.784-18.592 135.296 14.848 172.128 69.76 36.8 54.912 32.32 126.4 15.424 159.040-0.224 0.416-0.448 0.8-0.672 1.216 6.72 3.968 13.6 8.032 20.384 12.032 13.28 7.776 26.304 15.072 37.6 21.216-6.336-17.312-10.944-38.112-13.376-68.096-2.816-35.232 11.616-80.8 30.496-98.72 8.32-7.904 18.336-8.064 24.672-8.064 21.984 0 32.032 18.304 43.072 39.936 13.536 26.528 25.568 57.44 25.568 57.44s-15.104-83.456 26.016-83.456c14.976 0 30.048 19.424 36.768 29.344 0.032-0.096 0.032-0.16 0.032-0.16s0.384 0.64 1.152 1.952c1.568 2.368 2.432 3.904 2.432 3.904s0.032 0.16 0.064 0.416c6.016 10.464 19.36 34.304 39.392 73.6 25.888 50.784 50.688 114.4 50.688 114.4s2.304-15.552 9.856-41.28c4.448-15.136 13.888-31.872 21.344-47.904-6.016-8.32-9.696-13.12-9.696-13.12s0.032-0.096 0.096-0.256c-4.8-6.368-10.176-13.248-15.808-19.936-20.416-24.32-44.736-52.096-48-60.128-3.84-9.44-2.944-16.384 4.48-21.984 5.408-4.096 15.072-4.704 25.12-4.032 18.368 1.248 31.264 5.792 37.632 8.544 9.92 3.52 21.504 9.024 32.352 17.024 20.032 14.72 32.128 35.808 30.944 63.712-0.64 15.392-5.536 30.624-11.744 45.024 1.824 2.624 3.648 5.248 5.472 7.936 31.584 46.176 56.096 96.896 56.096 96.896s2.304-15.552 9.888-41.28c3.84-13.024 11.392-27.232 18.176-41.152-29.696-24.128-48.128-52.16-54.496-70.56-11.808-34.016-2.56-49.44 14.816-52.928 7.872-1.6 18.976 2.016 27.328 5.568 10.4 3.456 22.912 9.184 34.56 17.76 20.032 14.72 39.296 35.36 38.144 63.264-0.544 12.704-3.968 25.312-8.64 37.44 25.184 10.496 57.76 16.32 99.264 11.456 89.056-10.4 106.528-66.016 103.2-89.28s-22.016-36.064-28.256-39.936c-6.24-3.872-8.16-5.216-7.616-8.064 0.768-4.192 3.648-4.032 8.96-3.104 7.328 1.248 46.752 18.944 48.448 61.888 2.24 54.496-50.016 114.4-142.592 113.92zM194.816 159.2c-29.504-32.192-70.72-44.352-88.384-34.112-19.072 11.072-11.52 58.432 24.672 92.576 22.080 20.8 50.56 39.968 69.44 51.776 4.288 2.592 10.624 6.4 18.304 10.976 1.28 0.736 1.984 1.12 1.984 1.12l-0.032 0.096c1.472 0.896 3.008 1.792 4.576 2.72 13.152-48.576 0.384-91.392-30.56-125.152zM409.696 305.28c-10.272-25.056-31.776-89.12-44.864-85.696-11.232 2.944-18.080 51.648-2.24 99.616 7.968 24.128 24.992 52.96 35.008 64.16 16.096 18.016 33.824 23.904 38.144 16.608 5.472-9.312-19.584-78.976-26.048-94.688zM587.264 220.576c-4.352-2.272-8.352-3.712-10.208-2.592-1.376 0.8 1.792 3.808 1.792 3.808s22.208 23.904 30.944 34.784c5.088 6.336 10.976 13.824 17.408 22.24 0.064-0.832 0.096-1.664 0.096-2.496-0.064-28.64-27.712-47.968-40.032-55.744zM724.032 251.744c-3.264 2.304-2.72 9.792 7.968 33.056 4.192 9.152 13.76 24.512 30.4 39.232 1.92-6.048 3.104-11.84 3.072-17.248-0.192-36-25.888-49.44-41.44-55.040z" />
<glyph unicode="&#xe60c;" glyph-name="google-plus" d="M0.864 464.256c2.784 167.552 156.832 314.272 324.384 308.704 80.288 3.712 155.744-31.2 217.248-80.288-26.24-29.824-53.408-58.528-82.464-85.408-73.92 51.072-179.040 65.696-252.96 6.688-105.76-73.152-110.56-245.792-8.864-324.544 98.912-89.76 285.856-45.184 313.184 92.224-61.952 0.928-124.064 0-186.016 2.016-0.16 36.96-0.32 73.92-0.16 110.88 103.584 0.32 207.136 0.48 310.88-0.32 6.208-86.944-5.28-179.488-58.688-251.392-80.896-113.824-243.328-147.040-370.016-98.304-127.168 48.48-217.248 182.784-206.528 319.744zM838.144 587.872c30.752 0 61.504 0 92.384 0 0.16-30.912 0.32-61.952 0.608-92.864 30.912-0.32 61.952-0.32 92.864-0.608 0-30.752 0-61.632 0-92.384-30.912-0.32-61.792-0.48-92.864-0.768-0.32-31.040-0.48-61.952-0.608-92.864-30.912 0-61.632 0-92.544 0-0.32 30.912-0.32 61.792-0.608 92.704-30.912 0.32-61.952 0.608-92.864 0.928 0 30.752 0 61.504 0 92.384 30.912 0.32 61.792 0.48 92.864 0.608 0.128 31.072 0.448 61.952 0.768 92.864z" />
<glyph unicode="&#xe60d;" glyph-name="megaphone-2" d="M1003.179 874.667c-11.776 0-21.333-9.557-21.333-21.333v-26.88l-938.667-285.653v13.867c0 11.776-9.6 21.333-21.333 21.333-11.776 0-21.333-9.557-21.333-21.333v-213.333c0-11.776 9.557-21.333 21.333-21.333 11.733 0 21.333 9.557 21.333 21.333v13.867l170.667-51.925v-94.677c0-94.123 76.544-170.667 170.667-170.667 91.008 0 165.419 71.723 170.155 161.621l427.179-129.963v-26.88c0-11.776 9.557-21.333 21.333-21.333 11.733 0 21.333 9.557 21.333 21.333v810.667c0 11.733-9.6 21.291-21.333 21.291zM512.512 208.597c0-70.571-57.429-128-128-128s-128 57.429-128 128v81.707l256-77.909v-3.797z" />
<glyph unicode="&#xe60e;" glyph-name="gauge" d="M512 790.869c-282.325 0-512-229.675-512-512v-192c0-11.776 9.557-21.333 21.333-21.333h981.333c11.776 0 21.333 9.557 21.333 21.333v192c0 282.325-229.675 512-512 512zM614.741 582.656l32.683 78.805c4.48 10.923 16.939 16.128 27.861 11.563 10.88-4.48 16.043-16.981 11.563-27.861l-32.683-78.848c-3.413-8.192-11.349-13.141-19.712-13.141-2.688 0-5.461 0.555-8.149 1.621-10.923 4.48-16.085 16.981-11.563 27.861zM490.667 684.203c0 11.776 9.557 21.333 21.333 21.333s21.333-9.557 21.333-21.333v-85.333c0-11.776-9.557-21.333-21.333-21.333s-21.333 9.557-21.333 21.333v85.333zM192 236.203h-85.333c-11.776 0-21.333 9.557-21.333 21.333s9.557 21.333 21.333 21.333h85.333c11.776 0 21.333-9.557 21.333-21.333s-9.557-21.333-21.333-21.333zM236.075 393.131c-3.413-8.192-11.349-13.184-19.712-13.184-2.688 0-5.504 0.555-8.149 1.664l-78.805 32.683c-10.88 4.523-16.043 16.981-11.563 27.861s16.981 16.128 27.861 11.563l78.805-32.683c10.923-4.523 16.085-17.024 11.563-27.904zM300.757 490.027c-4.181-4.181-9.643-6.229-15.104-6.229s-10.923 2.091-15.104 6.229l-60.245 60.373c-8.32 8.363-8.277 21.888 0.043 30.208 8.32 8.277 21.845 8.235 30.165-0.043l60.288-60.373c8.32-8.32 8.32-21.845-0.043-30.165zM397.696 554.752c-2.688-1.067-5.419-1.621-8.149-1.621-8.363 0-16.341 4.949-19.712 13.141l-32.64 78.891c-4.523 10.837 0.683 23.339 11.563 27.861 10.837 4.523 23.381-0.683 27.861-11.605l32.64-78.805c4.523-10.837-0.683-23.339-11.563-27.861zM597.333 278.869c0-47.104-38.272-85.333-85.333-85.333s-85.333 38.229-85.333 85.333c0 47.104 38.272 85.333 85.333 85.333 15.787 0 30.379-4.608 43.051-12.075l198.315 198.229c8.32 8.363 21.845 8.363 30.165 0 8.32-8.32 8.32-21.803 0-30.165l-198.315-198.229c7.509-12.715 12.117-27.349 12.117-43.093zM787.883 393.131c-4.48 10.923 0.683 23.381 11.563 27.861l78.848 32.64c10.88 4.523 23.339-0.683 27.861-11.563 4.523-10.837-0.683-23.296-11.563-27.819l-78.848-32.64c-2.688-1.067-5.419-1.664-8.149-1.664-8.363 0-16.299 4.992-19.712 13.184zM917.333 236.16v0l-85.333 0.043c-11.776 0-21.333 9.6-21.333 21.333 0 11.776 9.557 21.333 21.333 21.333v0l85.333-0.043c11.776 0 21.333-9.557 21.333-21.333s-9.557-21.333-21.333-21.333z" />
<glyph unicode="&#xe60f;" glyph-name="alarm" d="M1002.667 192c-58.795 0-106.667 47.829-106.667 106.667v192c0 155.349-95.573 296.576-239.061 355.2-16 66.859-75.093 114.133-144.939 114.133-68.779 0-129.024-48.256-145.067-114.133-143.403-58.624-238.933-199.808-238.933-355.2v-192c0-58.837-47.872-106.667-106.667-106.667-11.776 0-21.333-9.557-21.333-21.333s9.557-21.333 21.333-21.333h981.333c11.776 0 21.333 9.557 21.333 21.333s-9.557 21.333-21.333 21.333zM640 106.667h-256c-11.776 0-21.333-9.557-21.333-21.333 0-82.347 66.987-149.333 149.333-149.333s149.333 66.987 149.333 149.333c0 11.776-9.557 21.333-21.333 21.333z" />
<glyph unicode="&#xe610;" glyph-name="download-2" d="M981.333 246.699c-23.595 0-42.667-19.115-42.667-42.667v-81.621c0-44.544-37.589-101.077-79.787-101.077h-693.803c-42.197 0-79.744 56.533-79.744 101.077v81.621c0 23.552-19.115 42.667-42.667 42.667-23.595 0-42.667-19.115-42.667-42.667v-81.621c0-87.979 70.571-186.411 165.077-186.411h693.803c94.507 0 165.12 98.432 165.12 186.411v81.621c0 23.552-19.115 42.667-42.667 42.667zM460.459 178.56c15.573-15.915 43.008-17.408 60.373 0l298.667 298.624c16.683 16.683 16.683 43.648 0 60.331s-43.691 16.683-60.331 0l-225.835-225.835v605.653c0 23.552-19.115 42.667-42.667 42.667-23.595 0-42.667-19.115-42.667-42.667v-605.653l-225.835 225.835c-16.683 16.683-43.691 16.683-60.331 0-16.683-16.683-16.683-43.648 0-60.331l298.624-298.624z" />
<glyph unicode="&#xe611;" glyph-name="logo-path" d="M264.917 895.403c-126.251-49.92-212.053-146.304-235.989-276.096-23.168-125.397 8.491-243.072 72.021-308.821 11.221 3.925 22.059 9.003 32.384 14.805 42.667 24.064 74.155 61.184 110.677 92.416-122.155 141.483 7.339 316.885 169.259 355.968 150.741 36.352 355.072-26.411 400.768-181.504 44.075-149.845-87.424-262.4-245.931-224.939-20.053 4.693-34.731 4.523-34.731 26.112v254.421c0 17.323-1.408 13.568-15.829 15.317-46.976 5.632-109.099 9.813-155.52 1.835-14.933-2.56-15.787-0.171-15.787-16.256 0-113.067 3.328-416.256 3.2-419.243-1.109-28.16-1.92-95.787-33.451-109.739-36.523-16.171-68.864 18.005-102.571 25.173 4.608-47.488-25.045-141.525 30.293-165.504 50.688-22.016 109.056-30.165 162.517-12.032 112.085 37.973 148.352 162.688 134.144 265.173 172.971-51.669 359.723 34.773 433.707 191.019 52.651 111.232 30.421 249.429-48.896 344.021-148.523 177.152-450.091 211.157-660.267 127.872z" />
<glyph unicode="&#xe612;" glyph-name="add-circle-1" d="M838.272 815.616c-92.501 92.885-215.552 144.128-347.605 144.384-270.037 0-490.112-219.648-490.624-489.728-0.256-131.072 50.517-254.379 143.019-347.264 92.501-92.843 215.637-144.128 346.709-144.384h0.939c269.995 0.043 490.112 219.733 490.624 489.813 0.256 131.029-50.56 254.336-143.061 347.179zM490.709 0v0 0 0zM746.667 447.488v0l-234.667 0.256v-234.411c0-11.776-9.6-21.333-21.333-21.333-11.776 0-21.333 9.557-21.333 21.333v234.453l-234.709 0.213c-11.776 0.043-21.333 9.6-21.291 21.376 0 11.733 9.557 21.291 21.333 21.291v0l234.667-0.213v234.88c0 11.776 9.557 21.333 21.333 21.333 11.733 0 21.333-9.557 21.333-21.333v-234.923l234.709-0.256c11.733 0 21.333-9.557 21.291-21.333 0-11.776-9.557-21.333-21.333-21.333z" />
<glyph unicode="&#xe613;" glyph-name="remove-circle-1" d="M490.624 960c-270.037 0-490.112-219.648-490.624-489.728-0.256-131.072 50.517-254.379 143.019-347.264 92.501-92.8 215.595-144.085 346.709-144.341h0.939c269.995 0 490.112 219.691 490.667 489.771 0.512 270.507-219.179 491.051-490.709 491.563zM490.667 0v0 0 0zM686.421 303.019c8.277-8.32 8.235-21.845-0.085-30.165-4.181-4.181-9.6-6.229-15.061-6.229s-10.965 2.091-15.104 6.229l-165.632 166.272-166.229-165.632c-4.181-4.181-9.643-6.229-15.104-6.229s-10.923 2.091-15.104 6.229c-8.32 8.363-8.32 21.888 0.043 30.165l166.229 165.632-165.547 166.315c-8.32 8.405-8.277 21.888 0.085 30.165 8.32 8.405 21.845 8.363 30.165 0l165.589-166.229 166.229 165.589c8.32 8.32 21.888 8.32 30.165-0.043 8.32-8.32 8.32-21.845-0.043-30.165l-166.229-165.632 165.632-166.272z" />
<glyph unicode="&#xe614;" glyph-name="logo-rdio" d="M534.144 607.147c-47.104 13.227-123.093 18.005-194.261-33.109-113.493-81.451-92.117-166.955-92.117-166.955s5.291-135.083 165.461-135.083c179.072 0 206.251 163.115 206.251 163.115v372.821c173.141-85.419 231.936-141.099 366.677-137.6 0 0 17.323 3.669 17.323-30.805 0-18.688-6.656-40.021-25.387-60.117 0 0-35.584-53.205-108.203-78.336 2.688-18.517 4.096-37.419 4.096-56.661 0-225.792-190.677-408.832-425.941-408.832-235.179 0-425.856 183.040-425.856 408.832 0 225.92 190.72 408.917 425.856 408.917 30.123 0 57.771 0.512 86.144-5.248v-240.939z" />
<glyph unicode="&#xe615;" glyph-name="alarm-clock" d="M198.229-27.563c-8.32-8.32-8.32-21.845 0-30.165 4.181-4.181 9.643-6.272 15.104-6.272s10.923 2.091 15.104 6.229l27.435 27.477c-12.075 7.851-23.765 16.341-35.029 25.301l-22.613-22.571zM803.2-4.992c-11.307-8.96-22.955-17.451-35.029-25.344l27.435-27.435c4.139-4.139 9.6-6.229 15.061-6.229s10.923 2.091 15.104 6.229c8.32 8.32 8.32 21.845 0 30.165l-22.571 22.613zM832 917.333c-76.16 0-141.867-44.672-172.885-109.099 121.984-40.363 221.995-129.408 276.736-244.139 52.949 34.176 88.149 93.653 88.149 161.237 0 105.856-86.144 192-192 192zM383.488 813.952c-32.085 61.397-96.256 103.381-170.155 103.381-105.856 0-192-86.144-192-192 0-60.715 28.416-114.773 72.491-150.016 58.709 114.987 163.371 202.581 289.664 238.635zM512 789.333c-235.264 0-426.667-191.403-426.667-426.667s191.403-426.667 426.667-426.667c235.264 0 426.667 191.403 426.667 426.667s-191.403 426.667-426.667 426.667zM554.667 341.333c0-11.776-9.557-21.333-21.333-21.333h-170.667c-11.776 0-21.333 9.557-21.333 21.333s9.557 21.333 21.333 21.333h149.333v234.667c0 11.776 9.557 21.333 21.333 21.333s21.333-9.557 21.333-21.333v-256z" />
<glyph unicode="&#xe616;" glyph-name="account-group-5" d="M893.141 311.979c-20.096 7.253-41.003 14.763-61.141 22.528v36.565c15.915 10.581 38.699 34.347 42.197 84.651 14.421 12.16 21.888 36.864 21.888 61.355 0 9.6-1.28 23.552-7.253 35.584-1.963 3.968-4.352 7.467-7.083 10.453 10.453 19.029 24.235 50.176 13.099 83.584-15.317 46.208-77.952 62.635-126.848 62.635-42.709 0-95.872-12.501-118.912-46.421-22.571 0.725-34.176-9.429-39.936-17.835-15.531-22.613-4.565-55.595 4.48-79.403-3.669-3.413-6.869-7.637-9.387-12.544-6.187-11.989-7.467-25.941-7.467-35.541 0-24.747 7.595-49.749 22.357-61.952 3.541-50.219 26.283-73.984 42.197-84.523v-36.565c-4.736-1.835-9.6-3.584-14.421-5.419 69.845-42.965 78.421-70.955 78.421-94.464v-213.333h277.333c11.776 0 21.333 9.557 21.333 21.333v192c0 29.099-37.76 43.819-130.859 77.312zM448 377.045c0 426.667 0-367.659 0 59.008 29.867 22.997 40.363 66.176 42.283 103.68 18.816 12.416 27.947 40.875 27.947 63.915 0 18.304-5.547 37.163-19.883 48.469 22.784 52.907 18.816 92.843 6.571 116.565-24.192 46.763-89.643 63.317-142.251 63.317-52.181 0-118.016-16.939-141.781-62.080-18.475 0.853-35.925-4.608-45.995-19.755-17.579-26.539-1.408-68.395 10.965-97.579-15.189-11.221-21.205-30.848-21.205-49.664 0-22.827 9.344-51.029 27.733-63.189 1.195-23.467 5.888-49.621 16.341-70.784 0.043-0.085 0.085-0.171 0.128-0.256 8.192-16.427 17.92-26.581 25.813-32.64 0-141.44 0 85.376 0-59.008-74.709-30.421-214.229-91.989-232.576-133.76-0.085-0.213-0.256-0.427-0.341-0.64-1.152-2.773-1.749-5.419-1.749-7.979v-192c0-11.776 9.557-21.333 21.333-21.333 381.568 0 661.333 0 661.333 0v213.333c0 46.208-190.251 124.288-234.667 142.379z" />
<glyph unicode="&#xe617;" glyph-name="person-1" d="M839.552 219.733l-199.552 71.296v98.347c61.141 50.133 101.333 133.547 101.333 227.968 0 3.029-0.299 6.059-0.384 9.088-13.269-4.864-28.032-9.088-42.283-9.088-70.613 0-119.424 11.307-160.469 66.304-36.437-38.315-100.779-66.304-159.531-66.304-27.691 0-73.472 17.749-104.96 31.915-1.024-10.496-1.707-21.12-1.707-31.915 0-99.755 44.928-187.093 112-235.947v-90.368l-199.595-71.253c-59.264-21.205-99.072-77.696-99.072-140.672v-101.803h853.333v101.803c0 62.976-39.851 119.467-99.115 140.629zM520.405 730.837l18.048 34.603 19.371-33.877c35.029-61.269 71.765-71.595 140.843-71.595 11.051 0 26.155 5.547 38.229 10.539-21.077 127.531-116.267 224.128-230.229 224.128-107.264 0-197.717-85.589-225.621-201.899 32.853-15.531 78.507-32.768 97.621-32.768 55.808 0.043 122.069 33.152 141.739 70.869z" />
<glyph unicode="&#xe618;" glyph-name="person-2" d="M979.072 141.568c-31.36 62.677-138.368 102.016-286.464 156.501-17.067 6.272-34.688 12.715-52.608 19.456v102.741c18.731 15.915 58.795 57.429 63.531 125.184 9.685 8.192 17.28 22.357 21.717 41.088 7.125 30.080 3.541 65.749-17.707 86.912 1.237 3.115 2.603 6.613 3.883 9.899 16.384 41.216 46.848 117.973 34.773 178.219-14.763 73.813-119.637 100.053-204.971 100.053-66.176 0-146.603-16.683-171.904-62.336-25.429-2.859-45.099-13.44-58.539-31.531-37.077-49.963-10.155-138.752 4.309-186.453 0.725-2.347 1.493-4.864 2.176-7.125-22.016-21.035-25.728-57.216-18.517-87.68 4.437-18.731 12.032-32.896 21.717-41.088 4.736-67.755 44.8-109.227 63.531-125.141v-102.741c-17.963-6.699-35.541-13.184-52.651-19.456-148.096-54.443-255.104-93.824-286.421-156.459-44.416-88.875-44.928-178.901-44.928-182.699 0-11.776 9.557-21.333 21.333-21.333h981.333c11.776 0 21.333 9.557 21.333 21.333 0 3.797-0.512 93.824-44.928 182.656z" />
<glyph unicode="&#xe619;" glyph-name="bubble-chat-typing-3" d="M511.829 953.557c-282.325 0-512-189.184-512-421.675 0-109.824 50.219-212.693 141.867-291.456l-102.827-205.312c-4.096-8.107-2.56-17.877 3.755-24.363 4.139-4.267 9.685-6.485 15.317-6.485 3.072 0 6.101 0.64 9.003 2.005l274.645 127.787c54.528-15.787 111.744-23.808 170.24-23.808 282.325 0 512 189.141 512 421.632s-229.675 421.675-512 421.675zM298.496 484.224c-35.371 0-64 28.672-64 64s28.629 64 64 64 64-28.672 64-64-28.629-64-64-64zM511.829 484.224c-35.371 0-64 28.672-64 64s28.629 64 64 64 64-28.672 64-64-28.629-64-64-64zM725.163 484.224c-35.371 0-64 28.672-64 64s28.629 64 64 64 64-28.672 64-64-28.629-64-64-64z" />
<glyph unicode="&#xe61a;" glyph-name="email-2" d="M938.667 789.333h-853.333c-47.061 0-85.333-38.272-85.333-85.333v-512c0-47.061 38.272-85.333 85.333-85.333h853.333c47.061 0 85.333 38.272 85.333 85.333v512c0 47.061-38.272 85.333-85.333 85.333zM309.248 344.149l-149.333-85.333c-3.328-1.92-6.997-2.816-10.581-2.816-7.424 0-14.592 3.84-18.56 10.752-5.845 10.197-2.304 23.253 7.936 29.099l149.333 85.333c10.24 5.845 23.253 2.304 29.099-7.936 5.888-10.24 2.347-23.253-7.893-29.099zM512 341.333c-4.011 0-8.064 1.109-11.563 3.413l-362.667 234.667c-9.899 6.4-12.757 19.627-6.315 29.483 6.4 9.813 19.584 12.715 29.483 6.272l351.061-227.115 351.104 227.157c9.899 6.4 23.125 3.584 29.483-6.272 6.4-9.899 3.541-23.125-6.315-29.483l-362.667-234.667c-3.541-2.347-7.552-3.456-11.605-3.456zM893.184 266.752c-3.925-6.912-11.136-10.752-18.517-10.752-3.584 0-7.211 0.896-10.581 2.773l-149.333 85.333c-10.24 5.845-13.781 18.859-7.936 29.099s18.901 13.739 29.099 7.936l149.333-85.333c10.24-5.803 13.781-18.859 7.936-29.056z" />
<glyph unicode="&#xe61b;" glyph-name="chat-double-bubble-4" d="M704 586.667c20.309 0 40.149-1.92 59.691-4.907 2.773 16.171 4.309 32.896 4.309 50.347 0 174.933-172.288 317.227-384 317.227-211.755 0-384-142.293-384-317.227 0-83.712 36.48-163.243 100.693-220.928l-76.544-133.973c-4.48-7.893-3.541-17.749 2.432-24.576 4.139-4.693 10.027-7.296 16.085-7.296 2.645 0 5.333 0.512 7.936 1.493l206.464 82.645c18.56-5.291 37.845-9.301 57.515-11.989 0.939-0.085 2.773 0.213 3.2-0.171 3.2 0 13.611 0.085 28.928 0.939 28.971 149.931 180.608 268.416 357.291 268.416zM704 544c-173.44 0-320-127.019-320-277.333 0-143.147 122.795-265.557 274.517-280.405 0.085 0 0.171-0.043 0.256-0.085 55.296-5.248 109.739 4.949 152.405 22.869 13.397-5.035 149.163-55.979 162.688-61.013 7.851-3.029 17.28-1.024 23.339 5.717 5.888 6.485 7.125 15.915 3.243 23.765-11.776 23.637-45.611 91.179-56.533 113.067 51.371 46.421 80.085 107.051 80.085 176.085 0 150.315-146.56 277.333-320 277.333z" />
<glyph unicode="&#xe61c;" glyph-name="hand-tablet" d="M375.893 237.056c-6.869 12.629-10.112 26.368-11.477 40.277h-172.416c-11.776 0-21.333 9.557-21.333 21.333v554.667c0 11.776 9.557 21.333 21.333 21.333h682.667c11.776 0 21.333-9.557 21.333-21.333v-446.763l103.125-36.992c9.003-2.731 17.28-7.125 24.875-12.544v496.299c0 58.837-47.872 106.667-106.667 106.667h-810.667c-58.795 0-106.667-47.829-106.667-106.667v-554.667c0-58.837 47.872-106.667 106.667-106.667h294.059l-24.832 45.056zM938.667 597.333c11.776 0 21.333-9.557 21.333-21.333s-9.557-21.333-21.333-21.333c-11.733 0-21.333 9.557-21.333 21.333s9.6 21.333 21.333 21.333zM106.667 533.333c-23.509 0-42.667 19.115-42.667 42.667s19.157 42.667 42.667 42.667 42.667-19.115 42.667-42.667-19.157-42.667-42.667-42.667zM984.704 329.429l-216.704 77.739v212.779c0 38.101-20.949 62.72-53.333 62.72h-61.781c-32.725 0-55.552-25.771-55.552-62.72v-334.635l-35.243 42.112c-11.52 14.763-30.976 23.936-51.2 23.936l-42.24-0.811c-22.229 0-43.008-11.776-54.229-30.848s-11.691-42.837-1.195-62.080l159.36-288.981c11.008-20.139 31.957-32.64 54.741-32.64h272.469c25.387 0 48.043 15.189 58.837 42.155l64.853 285.056c0.341 1.579 0.512 3.157 0.512 4.736 0 29.995-15.787 54.229-39.296 61.483z" />
<glyph unicode="&#xe61d;" glyph-name="bicycle-road" d="M874.667 127.744c0-23.564-19.103-42.667-42.667-42.667s-42.667 19.103-42.667 42.667c0 23.564 19.103 42.667 42.667 42.667s42.667-19.103 42.667-42.667zM832 319.744c-22.272 0-43.563-4.011-63.488-11.008l-48.128 178.176 102.613-11.904c11.648-1.749 19.797-12.587 18.176-24.149-1.707-11.648-12.757-19.712-24.192-18.091-11.776 1.835-22.485-6.4-24.149-18.048s6.4-22.528 18.048-24.149c35.029-5.163 67.456 19.2 72.533 54.229 4.949 34.901-19.371 67.413-54.827 72.533l-134.485 15.659c-7.040 0.981-13.995-1.92-18.645-7.253-4.565-5.376-6.229-12.672-4.437-19.499l27.307-101.12h-322.603l-42.581 101.163 44.117-14.72c2.261-0.768 4.48-1.152 6.741-1.152 8.917 0 17.237 5.675 20.224 14.592 3.755 11.221-2.304 23.296-13.44 27.008l-128 42.667c-11.307 3.797-23.296-2.347-27.051-13.525-3.712-11.136 2.347-23.253 13.525-26.923l29.995-10.027 58.624-139.136-57.856-86.827c-26.411 13.696-56.277 21.547-88.021 21.547-105.856 0-192-86.187-192-192 0-105.856 86.144-192 192-192 98.645 0 180.096 74.837 190.72 170.667h85.291c0.427 0 0.896-0.085 1.323-0.085 5.461 0 10.923 2.133 15.104 6.272l230.571 230.613 14.421-53.461c-53.675-34.133-89.429-93.867-89.429-162.048 0-105.856 86.144-192 192-192s192 86.144 192 192c0 105.856-86.144 192-192 192zM192-0.256c-70.571 0-128 57.429-128 128s57.429 128 128 128 128-57.429 128-128-57.429-128-128-128zM382.72 149.077c-5.547 50.176-30.549 94.507-67.2 125.44l42.197 63.317 79.488-188.8h-54.485zM476.672 165.248l-82.987 197.163h280.149l-197.163-197.163zM832-0.256c-70.571 0-128 57.429-128 128s57.429 128 128 128 128-57.429 128-128-57.429-128-128-128zM234.667 127.744c0-23.564-19.103-42.667-42.667-42.667s-42.667 19.103-42.667 42.667c0 23.564 19.103 42.667 42.667 42.667s42.667-19.103 42.667-42.667z" />
<glyph unicode="&#xe61e;" glyph-name="smartphone-iphone" d="M704 960h-384c-58.837 0-106.667-47.872-106.667-106.667v-810.667c0-58.795 47.829-106.667 106.667-106.667h384c58.795 0 106.667 47.872 106.667 106.667v810.667c0 58.795-47.872 106.667-106.667 106.667zM405.333 874.667h213.333c11.776 0 21.333-9.557 21.333-21.333s-9.557-21.333-21.333-21.333h-213.333c-11.776 0-21.333 9.557-21.333 21.333s9.557 21.333 21.333 21.333zM512 0c-23.552 0-42.667 19.115-42.667 42.667 0 23.595 19.115 42.667 42.667 42.667 23.595 0 42.667-19.072 42.667-42.667 0-23.552-19.072-42.667-42.667-42.667zM768 149.333h-512v597.333h512v-597.333z" />
<glyph unicode="&#xe61f;" glyph-name="cursor-tap" d="M408.917-54.485c3.925-5.931 10.581-9.515 17.749-9.515h341.333c10.283 0 19.115 7.381 20.992 17.493l42.411 233.728c11.989 52.011-4.907 113.92-60.075 131.669l-173.995 59.051v240.725c0 47.061-38.272 85.333-85.333 85.333-47.104 0-85.333-38.272-85.333-85.333v-401.024c-62.933 84.096-104.064 102.357-149.333 102.357-21.376 0-38.4-9.728-47.915-27.392-14.976-27.563-6.656-67.499 8.832-91.136l170.667-255.957zM874.667 661.333c0 23.552-19.115 42.667-42.667 42.667h-128c-23.595 0-42.667-19.115-42.667-42.667s19.072-42.667 42.667-42.667h128c23.552 0 42.667 19.115 42.667 42.667zM691.499 737.835l85.333 85.333c16.683 16.64 16.683 43.648 0 60.331-16.683 16.64-43.691 16.64-60.331 0l-85.333-85.333c-16.683-16.683-16.683-43.691 0-60.331 8.32-8.32 19.243-12.501 30.165-12.501s21.845 4.181 30.165 12.501zM554.667 789.333v128c0 23.552-19.115 42.667-42.667 42.667-23.595 0-42.667-19.115-42.667-42.667v-128c0-23.552 19.072-42.667 42.667-42.667 23.552 0 42.667 19.115 42.667 42.667zM362.667 725.333c10.923 0 21.845 4.181 30.165 12.501 16.683 16.64 16.683 43.648 0 60.331l-85.333 85.333c-16.683 16.64-43.691 16.64-60.331 0-16.683-16.683-16.683-43.691 0-60.331l85.333-85.333c8.32-8.32 19.243-12.501 30.165-12.501zM149.333 661.333c0-23.552 19.072-42.667 42.667-42.667h128c23.552 0 42.667 19.115 42.667 42.667s-19.115 42.667-42.667 42.667h-128c-23.595 0-42.667-19.115-42.667-42.667z" />
<glyph unicode="&#xe620;" glyph-name="book-open-4" d="M0 896v-704c0-11.776 9.557-21.333 21.333-21.333 290.773 0 469.333-74.581 469.333-128v775.168c-84.352 64.981-281.131 99.499-469.333 99.499-11.776 0-21.333-9.557-21.333-21.333zM129.408 725.291c110.891-7.509 211.584-26.752 283.563-54.272 11.008-4.224 16.512-16.512 12.288-27.563-3.243-8.491-11.349-13.696-19.925-13.696-2.56 0-5.12 0.469-7.637 1.451-68.096 26.027-164.395 44.331-271.147 51.541-11.776 0.768-20.651 10.88-19.84 22.699 0.811 11.733 10.453 20.779 22.699 19.84zM129.408 597.291c110.891-7.509 211.584-26.752 283.563-54.272 11.008-4.224 16.512-16.512 12.288-27.563-3.243-8.491-11.349-13.696-19.925-13.696-2.56 0-5.12 0.469-7.637 1.451-68.096 26.027-164.395 44.331-271.147 51.541-11.776 0.768-20.651 10.88-19.84 22.699 0.811 11.733 10.453 20.821 22.699 19.84zM129.408 469.291c110.891-7.509 211.584-26.752 283.563-54.272 11.008-4.224 16.512-16.512 12.288-27.563-3.243-8.491-11.349-13.696-19.925-13.696-2.56 0-5.12 0.469-7.637 1.451-68.096 26.027-164.395 44.331-271.147 51.541-11.733 0.768-20.608 10.923-19.84 22.699 0.811 11.733 10.453 20.736 22.699 19.84zM129.408 341.291c110.891-7.509 211.584-26.752 283.563-54.272 11.008-4.224 16.512-16.512 12.288-27.563-3.243-8.491-11.349-13.696-19.925-13.696-2.56 0-5.12 0.469-7.637 1.451-68.096 26.027-164.395 44.331-271.147 51.541-11.733 0.768-20.608 10.923-19.84 22.699 0.811 11.733 10.453 20.821 22.699 19.84zM1002.667 917.333c-188.245 0-385.024-34.517-469.333-99.499v-775.168c0 53.419 178.56 128 469.333 128 11.733 0 21.333 9.557 21.333 21.333v704c0 11.776-9.6 21.333-21.333 21.333zM897.408 298.709c-106.709-7.211-203.008-25.515-271.104-51.541-2.56-0.981-5.12-1.451-7.637-1.451-8.576 0-16.725 5.248-19.968 13.739-4.181 11.008 1.323 23.339 12.331 27.563 72.021 27.52 172.672 46.763 283.52 54.272 12.288 0.939 21.931-8.107 22.741-19.84 0.811-11.819-8.107-21.931-19.883-22.741zM897.408 426.709c-106.709-7.211-203.008-25.515-271.104-51.541-2.56-0.981-5.12-1.451-7.637-1.451-8.576 0-16.725 5.248-19.968 13.739-4.181 11.008 1.323 23.339 12.331 27.563 72.021 27.52 172.672 46.763 283.52 54.272 12.288 0.853 21.931-8.107 22.741-19.84 0.811-11.819-8.107-21.931-19.883-22.741zM897.408 554.709c-106.709-7.211-203.008-25.515-271.104-51.541-2.56-0.981-5.12-1.451-7.637-1.451-8.576 0-16.725 5.248-19.968 13.739-4.181 11.008 1.323 23.339 12.331 27.563 72.021 27.52 172.672 46.763 283.52 54.272 12.288 0.981 21.931-8.107 22.741-19.84 0.811-11.819-8.107-21.931-19.883-22.741zM897.408 682.709c-106.709-7.211-203.008-25.515-271.104-51.541-2.56-0.981-5.12-1.451-7.637-1.451-8.576 0-16.725 5.248-19.968 13.739-4.181 11.008 1.323 23.339 12.331 27.563 72.021 27.52 172.672 46.763 283.52 54.272 12.288 0.896 21.931-8.107 22.741-19.84 0.811-11.819-8.107-21.931-19.883-22.741z" />
<glyph unicode="&#xe621;" glyph-name="lock-close-1" d="M128-64h768v640h-128v128c0 141.184-114.859 256-256 256-141.184 0-256-114.816-256-256v-128h-128v-640zM469.333 320c0 23.552 19.115 42.667 42.667 42.667 23.509 0 42.667-19.115 42.667-42.667 0-15.701-8.661-29.355-21.333-36.693v-112.64c0-11.733-9.6-21.333-21.333-21.333-11.776 0-21.333 9.6-21.333 21.333v112.64c-12.715 7.339-21.333 20.992-21.333 36.693zM298.667 704c0 117.632 95.659 213.333 213.333 213.333 117.632 0 213.333-95.701 213.333-213.333v-128h-426.667v128z" />
<glyph unicode="&#xe622;" glyph-name="upload-2" d="M981.333 246.699c-23.595 0-42.667-19.115-42.667-42.667v-81.621c0-44.544-37.589-101.077-79.787-101.077h-693.803c-42.197 0-79.744 56.533-79.744 101.077v81.621c0 23.552-19.115 42.667-42.667 42.667-23.595 0-42.667-19.115-42.667-42.667v-81.621c0-87.979 70.571-186.411 165.077-186.411h693.803c94.507 0 165.12 98.432 165.12 186.411v81.621c0 23.552-19.115 42.667-42.667 42.667zM222.165 588.459l225.835 225.835v-605.611c0-23.595 19.072-42.667 42.667-42.667 23.552 0 42.667 19.072 42.667 42.667v605.611l225.835-225.835c8.277-8.32 19.243-12.459 30.165-12.459s21.845 4.139 30.165 12.459c16.683 16.725 16.683 43.691 0 60.331l-298.667 298.667c-17.365 17.365-45.013 15.701-60.373 0l-298.624-298.667c-16.683-16.64-16.683-43.605 0-60.331 16.64-16.683 43.648-16.683 60.331 0z" />
<glyph unicode="&#xe623;" glyph-name="synchronize-3" d="M1017.131 362.709l-103.253 178.603c-1.749 2.944-3.669 5.717-6.016 8.107-7.168 7.893-16.939 12.971-27.733 13.909-13.909 1.024-27.477-4.437-36.437-15.104l-137.088-163.499c-15.147-18.048-12.8-44.971 5.248-60.075 18.048-15.147 45.013-12.8 60.075 5.248l62.123 74.027c-23.595-120.875-120.192-227.883-247.552-257.707-107.861-25.387-219.435 6.229-298.411 84.309-16.768 16.597-43.733 16.469-60.331-0.341-16.597-16.768-16.427-43.733 0.341-60.331 77.269-76.373 179.115-117.589 284.501-117.589 31.019 0 62.336 3.584 93.397 10.88 153.813 36.053 272.128 162.176 307.797 307.712l29.44-50.859c7.936-13.696 22.229-21.333 36.949-21.333 7.253 0 14.635 1.835 21.333 5.76 20.437 11.776 27.392 37.845 15.616 58.283zM315.221 547.712c-18.091 15.104-44.971 12.8-60.075-5.291l-73.515-87.68c1.408 54.699 16.896 108.757 46.293 157.739 47.403 79.147 124.928 136.32 212.608 156.843 114.987 27.008 235.008-11.392 313.259-100.053 15.573-17.664 42.496-19.371 60.203-3.797 17.664 15.573 19.371 42.539 3.797 60.245-99.072 112.299-251.093 160.896-396.757 126.677-110.037-25.771-207.104-97.237-266.325-196.011-26.624-44.416-43.904-92.245-52.437-141.312l-24.149 40.277c-12.16 20.139-38.357 26.709-58.581 14.549-20.181-12.117-26.752-38.315-14.592-58.539l109.269-181.845c7.083-11.819 19.456-19.499 33.195-20.565 1.109-0.085 2.219-0.128 3.328-0.128 12.544 0 24.533 5.547 32.725 15.232l137.045 163.499c15.104 18.133 12.8 45.013-5.291 60.16z" />
<glyph unicode="&#xe624;" glyph-name="badge-2" d="M131.499 319.275l-128.683-222.464c-4.139-7.125-3.755-16.043 0.939-22.827s12.971-10.325 21.077-8.875l146.731 24.832 50.859-139.861c2.816-7.765 9.813-13.184 18.091-13.952 0.725-0.085 1.408-0.128 2.091-0.128 7.467 0 14.421 3.925 18.347 10.411l109.312 183.637c-100.011 33.451-184.064 101.205-238.763 189.227zM1014.229 96.811l-125.355 216.704c-55.851-86.912-140.587-153.429-240.853-185.515l108.075-181.504c3.925-6.571 10.965-10.496 18.389-10.496 0.683 0 1.323 0.043 2.005 0.085 8.192 0.768 15.232 6.187 18.048 13.952l50.859 139.861 146.731-24.832c8.235-1.451 16.384 2.091 21.077 8.875 4.779 6.827 5.12 15.701 1.024 22.869zM917.333 554.667c0 223.488-181.845 405.333-405.333 405.333s-405.333-181.845-405.333-405.333 181.845-405.333 405.333-405.333 405.333 181.845 405.333 405.333zM717.312 602.027l-95.531-76.459 38.741-135.68c2.432-8.491-0.683-17.621-7.68-22.912-3.84-2.859-8.363-4.309-12.843-4.309-3.925 0-7.893 1.067-11.349 3.243l-116.651 72.96-116.693-72.96c-7.509-4.651-17.067-4.267-24.107 1.067-7.083 5.291-10.112 14.379-7.68 22.912l38.741 135.68-95.573 76.459c-7.083 5.632-9.813 15.147-6.827 23.723s11.051 14.251 20.139 14.251h114.773l58.112 116.224c7.211 14.464 30.933 14.464 38.187 0l58.112-116.224h114.816c9.045 0 17.109-5.717 20.139-14.251 2.944-8.576 0.256-18.091-6.827-23.723z" />
<glyph unicode="&#xe625;" glyph-name="hot-topic" d="M384.043 958.507c-8.917 3.541-19.072 0.64-24.832-6.997-5.76-7.595-5.76-18.133 0-25.728 106.069-139.861 112-360.491 17.408-487.637-22.059 30.677-36.053 62.805-43.52 99.456-1.408 7.083-6.315 12.928-13.056 15.573s-14.379 1.749-20.267-2.517c-120.875-86.613-169.6-234.155-124.032-375.851 46.635-145.067 175.531-238.805 328.448-238.805 170.283 0 286.635 98.56 319.147 270.421 49.408 260.395-115.371 624.725-439.296 752.085zM502.272 64c-61.909 0-114.816 44.288-125.739 105.344-1.237 7.083 1.109 14.336 6.315 19.243 5.248 4.949 12.544 6.912 19.584 5.291 2.347-0.555 4.907-0.811 7.637-0.811 28.501 0 68.693 29.099 89.643 64.896 9.216 15.701 22.357 46.080 7.253 72.96-3.712 6.613-3.627 14.72 0.171 21.248 3.84 6.485 10.88 10.496 18.389 10.496 23.637 0 45.013-9.131 61.781-26.453 33.835-34.859 44.373-97.749 42.965-144.853-2.133-71.381-58.411-127.36-128-127.36z" />
<glyph unicode="&#xe626;" glyph-name="thumbs-down-1" d="M960 880.213c-195.84 0-262.827 26.88-316.672 48.512-40.021 16.085-77.867 31.275-152.661 31.275h-277.333c-47.104 0-85.333-38.272-85.333-85.333 0-17.536 5.291-33.877 14.421-47.445-33.195-11.691-57.088-43.392-57.088-80.555 0-17.536 5.291-33.877 14.421-47.445-33.195-11.691-57.088-43.392-57.088-80.555 0-17.536 5.291-33.877 14.421-47.445-33.195-11.691-57.088-43.392-57.088-80.555 0-47.061 38.229-85.333 85.333-85.333h313.899c-12.288-49.877-36.565-157.355-36.565-223.957 0-37.461 10.069-68.736 29.312-90.411 17.067-19.285 41.216-30.293 66.219-30.293 42.837 0 75.179 30.123 75.179 70.144 0 186.923 157.355 317.227 298.667 317.227h128c11.733 0 21.333 9.557 21.333 21.333v389.504c-0.043 11.776-9.643 21.333-21.376 21.333z" />
<glyph unicode="&#xe627;" glyph-name="thumbs-up-1" d="M981.333 490.667c0 47.061-38.272 85.333-85.333 85.333h-313.984c12.245 50.176 36.651 158.592 36.651 225.323 0 83.541-49.92 121.557-96.256 121.557-42.411 0-74.411-29.867-74.411-69.547 0-188.587-157.397-320-298.667-320h-128c-11.776 0-21.333-9.557-21.333-21.333v-384c0-11.776 9.557-21.333 21.333-21.333 195.541 0 262.4-28.715 316.16-51.797 40.192-17.28 78.080-33.536 153.173-33.536h277.333c47.061 0 85.333 38.272 85.333 85.333 0 17.579-5.333 33.877-14.464 47.445 33.195 11.691 57.131 43.392 57.131 80.555 0 17.579-5.333 33.877-14.464 47.445 33.195 11.691 57.131 43.392 57.131 80.555 0 17.579-5.333 33.877-14.464 47.445 33.195 11.691 57.131 43.392 57.131 80.555z" />
<glyph unicode="&#xe628;" glyph-name="cloud" d="M794.752 618.411c-55.083 104.235-164.565 170.923-282.752 170.923-161.195 0-296.149-120.277-316.885-277.845-104.405 8.363-195.115-74.837-195.115-180.821 0-92.885 50.731-137.344 93.355-158.251 44.715-21.973 89.643-23.083 98.133-23.083l621.909 0.213c2.091 0.299 210.603 29.739 210.603 234.453 0 127.573-102.357 231.723-229.248 234.411z" />
<glyph unicode="&#xe629;" glyph-name="pencil-ruler" d="M213.333 149.333h213.333v-42.667h-213.333v42.667zM341.333 597.333h85.333v-405.333h-85.333v405.333zM339.499 819.285c-3.456 7.765-11.051 12.715-19.499 12.715s-16.043-4.949-19.499-12.715l-79.701-179.285h198.357l-79.659 179.285zM213.333 42.667c0-58.795 47.872-106.667 106.667-106.667s106.667 47.872 106.667 106.667v21.333h-213.333v-21.333zM213.333 597.333h85.333v-405.333h-85.333v405.333zM789.333 960h-256c-11.776 0-21.333-9.557-21.333-21.333v-106.667h106.667c11.776 0 21.333-9.557 21.333-21.333 0-11.819-9.557-21.333-21.333-21.333h-106.667v-128h106.667c11.776 0 21.333-9.557 21.333-21.333 0-11.819-9.557-21.333-21.333-21.333h-106.667v-128h106.667c11.776 0 21.333-9.557 21.333-21.333 0-11.819-9.557-21.333-21.333-21.333h-106.667v-128h106.667c11.776 0 21.333-9.557 21.333-21.333 0-11.819-9.557-21.333-21.333-21.333h-106.667v-128h106.667c11.776 0 21.333-9.557 21.333-21.333 0-11.819-9.557-21.333-21.333-21.333h-106.667v-149.333c0-11.819 9.557-21.333 21.333-21.333h256c11.776 0 21.333 9.515 21.333 21.333v981.333c0 11.776-9.557 21.333-21.333 21.333z" />
<glyph unicode="&#xe62a;" glyph-name="ruler-2" d="M1014.997-25.301l-153.259 153.301-57.771-57.771c-4.139-4.139-9.6-6.229-15.061-6.229s-10.923 2.091-15.104 6.229c-8.32 8.32-8.32 21.845 0 30.165l57.771 57.771-76.501 76.501-57.771-57.771c-4.181-4.181-9.643-6.229-15.104-6.229s-10.923 2.091-15.104 6.229c-8.32 8.32-8.32 21.845 0 30.165l57.771 57.771-76.459 76.501-57.771-57.771c-4.139-4.139-9.6-6.229-15.061-6.229s-10.923 2.091-15.104 6.229c-8.32 8.32-8.32 21.845 0 30.165l57.771 57.771-76.373 76.373-57.899-57.685c-4.181-4.096-9.643-6.187-15.061-6.187-5.461 0-10.923 2.091-15.104 6.272-8.32 8.32-8.277 21.888 0.085 30.165l57.813 57.6-76.629 76.629-57.771-57.771c-4.139-4.139-9.6-6.229-15.061-6.229s-10.923 2.091-15.104 6.229c-8.32 8.32-8.32 21.845 0 30.165l57.771 57.771-76.501 76.501-57.771-57.771c-4.139-4.139-9.6-6.229-15.061-6.229s-10.923 2.091-15.104 6.229c-8.32 8.32-8.32 21.845 0 30.165l57.771 57.771-76.501 76.501-57.771-57.771c-4.139-4.139-9.6-6.229-15.061-6.229s-10.923 2.091-15.104 6.229c-8.32 8.32-8.32 21.845 0 30.165l57.771 57.771-155.605 155.563c-6.101 6.144-15.275 7.979-23.253 4.608-7.979-3.243-13.141-11.051-13.141-19.669v-981.333c0-11.819 9.557-21.333 21.333-21.333h981.333c0.128 0 0.256 0 0.427 0 11.776 0 21.333 9.515 21.333 21.333 0 7.168-3.541 13.525-9.003 17.365zM170.24 106.667v375.168l375.168-375.168h-375.168z" />
<glyph unicode="&#xe62b;" glyph-name="vector-line-curve" d="M896 704v-42.667h-149.333c-95.232 0-188.459-31.403-266.069-88.661-0.768 1.408-1.451 2.859-2.304 4.267l185.429 189.653c17.451-12.416 38.613-19.925 61.611-19.925 58.795 0 106.667 47.872 106.667 106.667 0 58.837-47.872 106.667-106.667 106.667s-106.667-47.829-106.667-106.667c0-20.395 6.059-39.253 16-55.467l-186.709-190.976c-12.629 7.296-27.051 11.776-42.624 11.776-47.061 0-85.333-38.272-85.333-85.333 0-16.299 4.864-31.445 12.843-44.459l-163.541-168.277c-17.621 12.8-39.168 20.736-62.635 20.736-58.795 0-106.667-47.829-106.667-106.667 0-58.795 47.872-106.667 106.667-106.667s106.667 47.872 106.667 106.667c0 19.84-5.803 38.229-15.317 54.229l165.632 170.453c2.219-1.237 4.352-2.56 6.656-3.584-46.293-72.747-71.637-157.611-71.637-242.432v-149.333h-42.667v-128h128v128h-42.667v149.333c0 83.2 27.093 166.528 76.117 235.904 38.827 5.589 68.992 37.163 72.491 76.672 73.216 59.733 163.968 92.757 256.725 92.757h149.333v-42.667h128v128h-128z" />
<glyph unicode="&#xe62c;" glyph-name="photos-images_camera-2" d="M213.333 533.333c0-23.564-19.103-42.667-42.667-42.667s-42.667 19.103-42.667 42.667c0 23.564 19.103 42.667 42.667 42.667s42.667-19.103 42.667-42.667zM618.667 618.667c-117.632 0-213.333-95.701-213.333-213.333s95.701-213.333 213.333-213.333 213.333 95.701 213.333 213.333-95.701 213.333-213.333 213.333zM618.667 256c-82.347 0-149.333 66.987-149.333 149.333s66.987 149.333 149.333 149.333 149.333-66.987 149.333-149.333-66.987-149.333-149.333-149.333zM914.944 704h-69.76l-36.779 73.557-1.323 2.261c-22.4 33.621-51.456 52.181-81.749 52.181h-213.333c-30.293 0-59.307-18.56-81.067-51.2l-57.6-76.8h-117.333v21.333c0 34.091-31.019 64-66.389 64h-40.277c-33.451 0-62.805-29.909-62.805-63.403l-0.64-23.125c-70.187-7.637-85.888-54.059-85.888-93.653v-443.221c0-64.811 39.723-101.931 109.056-101.931h805.931c69.291 0 109.013 37.12 109.013 101.931v443.221c0 43.264-18.901 94.848-109.056 94.848zM170.667 448c-47.061 0-85.333 38.229-85.333 85.333 0 47.019 38.272 85.333 85.333 85.333s85.333-38.315 85.333-85.333c0-47.104-38.272-85.333-85.333-85.333zM618.667 149.333c-141.184 0-256 114.816-256 256s114.816 256 256 256c141.141 0 256-114.816 256-256s-114.859-256-256-256z" />
<glyph unicode="&#xe62d;" glyph-name="video-camera-2" d="M1002.923 427.051c-13.355 8.917-30.848 9.941-47.872 2.859l-187.051-77.909v74.667c0 35.285-28.715 64-64 64h-597.333c-35.285 0-64-28.715-64-64v-341.333c0-35.285 28.715-64 64-64h597.333c35.285 0 64 28.715 64 64v74.667l187.093-77.952c7.467-3.115 15.019-4.651 22.229-4.651 9.301 0 18.091 2.56 25.6 7.595 13.397 8.875 21.077 24.533 21.077 43.008v256c0 18.432-7.68 34.133-21.077 43.051zM618.667 320h-426.667c-11.776 0-21.333 9.557-21.333 21.333s9.557 21.333 21.333 21.333h426.667c11.776 0 21.333-9.557 21.333-21.333s-9.557-21.333-21.333-21.333zM192 533.333c105.856 0 192 86.144 192 192s-86.144 192-192 192c-105.856 0-192-86.144-192-192s86.144-192 192-192zM682.667 661.333c0-70.692-57.308-128-128-128s-128 57.308-128 128c0 70.692 57.308 128 128 128s128-57.308 128-128z" />
<glyph unicode="&#xe62e;" glyph-name="location-pin-2" d="M512 959.744c-188.203 0-341.333-153.088-341.333-341.333 0-181.077 310.272-653.099 323.541-673.067 3.925-5.931 10.624-9.6 17.792-9.6s13.824 3.627 17.792 9.6c13.227 19.968 323.541 491.989 323.541 673.067 0 188.203-153.131 341.333-341.333 341.333zM512 469.077c-82.347 0-149.333 67.029-149.333 149.333s66.987 149.333 149.333 149.333 149.333-67.029 149.333-149.333-66.987-149.333-149.333-149.333z" />
<glyph unicode="&#xe62f;" glyph-name="photos-images_exposure-level" d="M512 960c-282.325 0-512-229.717-512-512 0-282.325 229.675-512 512-512s512 229.675 512 512c0 282.283-229.675 512-512 512zM512 64c-211.712 0-384 172.245-384 384 0 211.712 172.288 384 384 384 211.755 0 384-172.288 384-384 0-211.755-172.245-384-384-384zM512 789.333v0c-109.056 0-206.080-51.584-268.587-131.413l98.219-163.712 170.368 295.125zM828.203 576h-193.024l172.203-298.283c29.056 50.176 45.952 108.245 45.952 170.283 0 45.269-9.045 88.405-25.131 128zM512 106.667c109.141 0 206.251 51.712 268.8 131.712l-96.384 166.912-172.416-298.624zM217.045 618.965c-29.312-50.347-46.379-108.672-46.379-170.965 0-45.312 9.045-88.448 25.131-128h200.661l-179.413 298.965zM807.125 618.667c-51.584 88.875-141.995 152.235-247.979 166.997l-96.384-166.997h344.363zM216.875 277.333c51.584-88.917 142.037-152.277 247.979-167.040l96.427 167.040h-344.405z" />
<glyph unicode="&#xe630;" glyph-name="headphone-1" d="M0 298.667c0-34.688 16.896-65.323 42.667-84.779v169.557c-25.771-19.499-42.667-50.091-42.667-84.779zM832 533.333h-1.067c-11.093 166.485-149.675 298.667-318.933 298.667s-307.84-132.181-318.933-298.667h-1.067c-58.795 0-106.667-47.872-106.667-106.667v-256c0-58.837 47.872-106.667 106.667-106.667h85.333c11.776 0 21.333 9.557 21.333 21.333v426.667c0 11.776-9.557 21.333-21.333 21.333h-41.6c10.965 142.933 130.517 256 276.267 256s265.301-113.067 276.267-256h-41.6c-11.776 0-21.333-9.557-21.333-21.333v-426.667c0-11.776 9.557-21.333 21.333-21.333h85.333c58.795 0 106.667 47.829 106.667 106.667v256c0 58.795-47.872 106.667-106.667 106.667zM981.333 383.403v-169.557c25.771 19.456 42.667 50.091 42.667 84.779s-16.896 65.323-42.667 84.779z" />
<glyph unicode="&#xe631;" glyph-name="logo-facebook" d="M800.768 641.493h-182.101v81.28c0 38.229 25.344 47.147 43.179 47.147s127.488 0 127.488 0v168.192l-184.704 0.555c-167.552 0-199.296-125.355-199.296-205.653v-91.52h-128v-170.667h128c0-222.379 0-512 0-512h213.333c0 0 0 292.267 0 512h164.309l17.792 170.667z" />
<glyph unicode="&#xe632;" glyph-name="logo-flickr" d="M1002.667 448c0-117.821-95.513-213.333-213.333-213.333s-213.333 95.513-213.333 213.333c0 117.821 95.513 213.333 213.333 213.333s213.333-95.513 213.333-213.333zM448 448c0-117.821-95.513-213.333-213.333-213.333s-213.333 95.513-213.333 213.333c0 117.821 95.513 213.333 213.333 213.333s213.333-95.513 213.333-213.333z" />
<glyph unicode="&#xe633;" glyph-name="shopping-cart-4" d="M21.333 832h149.333c9.899 0 18.517-6.827 20.779-16.469l56.405-239.531h754.816c6.869 0 13.355-3.285 17.323-8.875s5.077-12.757 2.901-19.243l-128-384c-2.901-8.661-11.008-14.549-20.224-14.549h-526.464l10.027-42.667h452.437c47.104 0 85.333-38.315 85.333-85.333 0-47.104-38.229-85.333-85.333-85.333-47.061 0-85.333 38.229-85.333 85.333 0 15.573 4.523 30.037 11.861 42.667h-322.347c7.339-12.629 11.819-27.093 11.819-42.667 0-47.104-38.229-85.333-85.333-85.333-47.061 0-85.333 38.229-85.333 85.333 0 37.973 25.088 69.845 59.477 80.896l-161.707 687.104h-132.437c-11.733 0-21.333 9.557-21.333 21.333s9.6 21.333 21.333 21.333z" />
<glyph unicode="&#xe634;" glyph-name="graph-bar-line" d="M1002.667-21.333h-21.333v618.667c0 11.776-9.6 21.333-21.333 21.333h-128c-11.776 0-21.333-9.557-21.333-21.333v-618.667h-85.333v320c0 11.776-9.6 21.333-21.333 21.333h-128c-11.776 0-21.333-9.557-21.333-21.333v-320h-85.333v405.333c0 11.776-9.6 21.333-21.333 21.333h-128c-11.776 0-21.333-9.557-21.333-21.333v-405.333h-85.333v192c0 11.776-9.6 21.333-21.333 21.333h-128c-11.776 0-21.333-9.557-21.333-21.333v-192h-21.333c-11.776 0-21.333-9.557-21.333-21.333 0-11.733 9.557-21.333 21.333-21.333h981.333c11.733 0 21.333 9.6 21.333 21.333 0 11.776-9.6 21.333-21.333 21.333zM128 405.333c35.243 0 64 28.715 64 64 0 7.765-1.621 15.189-4.181 22.101l163.669 136.405c9.6-5.675 20.608-9.173 32.512-9.173 20.437 0 38.443 9.813 50.176 24.789l141.952-47.275c0.64-34.731 28.971-62.848 63.872-62.848 35.243 0 64 28.715 64 64 0 11.605-3.328 22.272-8.747 31.744l177.792 207.403c7.125-2.773 14.848-4.48 22.955-4.48 35.243 0 64 28.715 64 64 0 35.328-28.757 64-64 64-35.285 0-64-28.672-64-64 0-11.563 3.328-22.315 8.704-31.701l-177.749-207.403c-7.168 2.731-14.891 4.437-22.955 4.437-20.437 0-38.443-9.771-50.219-24.747l-141.909 47.275c-0.683 34.688-29.013 62.805-63.872 62.805-35.285 0-64-28.672-64-64 0-7.765 1.579-15.189 4.181-22.101l-163.712-136.405c-9.557 5.675-20.608 9.173-32.469 9.173-35.285 0-64-28.672-64-64 0-35.285 28.715-64 64-64z" />
<glyph unicode="&#xe635;" glyph-name="logo-instagram" d="M512 704c-141.184 0-256-114.816-256-256 0-141.227 114.816-256 256-256s256 114.773 256 256c0 141.184-114.816 256-256 256zM170.667 915.157c-15.104-2.176-29.355-6.443-42.667-12.843v-304.981h42.667v317.824zM256 600.661v316.672h-42.667v-320h40.405c0.683 1.152 1.536 2.219 2.261 3.328zM981.333 155.819v612.181c0 82.347-66.987 149.333-149.333 149.333h-533.333v-261.077c54.229 55.637 129.707 90.411 213.333 90.411 110.251 0 206.507-60.203 258.261-149.333h168.405v-441.515c0-74.155-60.331-134.485-134.485-134.485h-584.363c-74.155 0-134.485 60.331-134.485 134.485v716.373c-26.325-26.965-42.667-63.659-42.667-104.192v-612.181c0-97.664 79.488-177.152 177.152-177.152h584.32c97.707 0 177.195 79.488 177.195 177.152zM917.333 661.333h-128c-11.776 0-21.333 9.557-21.333 21.333v128c0 11.776 9.557 21.333 21.333 21.333h128c11.776 0 21.333-9.557 21.333-21.333v-128c0-11.776-9.557-21.333-21.333-21.333z" />
<glyph unicode="&#xe636;" glyph-name="logo-pinterest" d="M517.845 938.667c-267.819 0-402.859-192-402.859-352.085 0-96.939 36.693-183.253 115.413-215.339 12.928-5.291 24.491-0.171 28.203 14.080 2.645 9.856 8.789 34.816 11.563 45.269 3.755 14.123 2.347 19.029-8.107 31.403-22.699 26.709-37.205 61.397-37.205 110.507 0 142.464 106.581 269.995 277.547 269.995 151.381 0 234.539-92.501 234.539-216.021 0-162.517-71.979-299.691-178.731-299.691-58.965 0-103.083 48.725-88.96 108.587 16.939 71.467 49.792 148.437 49.792 200.021 0 46.123-24.747 84.608-76.032 84.608-60.288 0-108.715-62.336-108.715-145.92 0-53.205 18.005-89.173 18.005-89.173s-61.653-261.376-72.491-307.157c-21.547-91.179-3.243-202.923-1.707-214.187 0.896-6.699 9.557-8.32 13.397-3.328 5.547 7.296 77.355 96 101.76 184.533 6.912 25.131 39.637 154.965 39.637 154.965 19.584-37.376 76.843-70.229 137.728-70.229 181.205 0 304.128 165.163 304.128 386.261-0.085 167.168-141.653 322.901-356.907 322.901z" />
<glyph unicode="&#xe637;" glyph-name="logo-twitter-bird" d="M1000.277 753.749c-34.731-15.488-64-16-95.061-0.683 40.021 23.979 41.856 40.832 56.32 86.144-37.461-22.229-78.976-38.4-123.136-47.104-35.285 37.632-85.675 61.227-141.44 61.227-107.093 0-193.877-86.869-193.877-193.877 0-15.189 1.707-29.995 4.992-44.203-161.109 8.064-304 85.248-399.616 202.581-16.683-28.629-26.24-61.952-26.24-97.493 0-67.285 34.261-126.592 86.229-161.365-31.787 1.024-61.653 9.728-87.765 24.235-0.043-0.811-0.043-1.579-0.043-2.432 0-93.952 66.816-172.288 155.563-190.123-28.416-7.723-58.368-8.917-87.595-3.371 24.704-76.971 96.299-133.035 181.12-134.613-82.987-65.024-185.856-92.117-287.061-80.256 85.845-54.997 187.691-87.083 297.216-87.083 356.608 0 551.595 295.424 551.595 551.637 0 8.448-0.128 16.768-0.512 25.088 37.845 27.307 83.328 52.779 109.312 91.691z" />
<glyph unicode="&#xe638;" glyph-name="logo-vimeo" d="M21.333 623.189l39.851-52.224c0 0 82.219 64.768 109.611 32.384 27.435-32.384 131.968-423.467 166.912-495.659 30.464-63.275 114.56-146.944 206.72-87.125 92.16 59.691 398.549 321.237 453.376 630.144 54.784 308.821-368.725 244.181-413.525-24.875 112.085 67.328 171.904-27.392 114.603-134.528-57.259-107.093-109.568-176.896-137.003-176.896-27.349 0-48.427 71.637-79.701 196.821-32.427 129.493-32.213 362.667-166.869 336.299-127.061-25.003-293.973-224.341-293.973-224.341z" />
<glyph unicode="&#xe639;" glyph-name="logo-youtube-clip" d="M856.021 789.333h-688c-92.629 0-168.021-75.435-168.021-168.064v-389.163c0-92.672 75.392-168.107 168.021-168.107h688c92.587 0 167.979 75.435 167.979 168.064v389.205c0 92.629-75.392 168.064-167.979 168.064zM705.621 425.344l-288.768-184.789c-3.499-2.219-7.509-3.371-11.52-3.371-3.541 0-7.040 0.896-10.24 2.688-6.827 3.669-11.093 10.88-11.093 18.645v369.579c0 7.808 4.267 14.976 11.093 18.731 6.869 3.712 15.189 3.413 21.76-0.768l288.811-184.832c6.144-3.925 9.813-10.667 9.813-17.963s-3.712-13.995-9.856-17.92z" />
<glyph unicode="&#xe63a;" glyph-name="logo-paypal" d="M516.736 668.288h-68.096l-24.704-105.771h43.904c12.629 0 26.667 4.437 39.509 12.501 4.779 3.072 9.643 6.656 14.037 10.752 12.032 11.349 20.565 25.429 24.021 39.637 4.736 16.939 1.579 29.867-8.192 36.864-5.547 3.968-12.587 6.016-20.48 6.016zM829.739 696.789c2.688-26.411 1.664-56.32-5.888-90.581-34.901-158.421-169.259-264.875-334.336-264.875h-115.371l-55.68-223.317c-4.736-18.944-21.803-32.299-41.387-32.299h-59.435l-20.053-85.717h208.171l63.744 255.616h148.693c144.085 0 261.419 89.557 292.651 231.424 23.296 105.515-19.285 174.464-81.109 209.749zM593.195 853.333h-354.731l-169.557-724.949h208.171l63.744 255.616h148.693c144.085 0 261.419 89.557 292.651 231.424 35.627 161.536-82.731 237.909-188.971 237.909zM586.795 615.424c-5.589-23.168-18.773-44.288-36.309-60.757-6.315-5.931-13.269-11.136-20.48-15.787-18.901-11.904-40.533-19.072-62.208-19.072h-97.664l41.387 177.152 3.243 13.995h101.973c17.579 0 33.067-5.205 45.312-13.995 23.168-16.64 34.475-46.848 24.747-81.536z" />
<glyph unicode="&#xe63b;" glyph-name="piggy-bank" d="M1002.667 576c-11.776 0-21.333-9.557-21.333-21.333 0-28.288-18.645-52.096-44.16-60.501-15.104 188.416-199.765 337.835-425.173 337.835-31.104 0-62.848-3.115-94.592-9.344-31.744 45.611-84.053 73.344-140.075 73.344-29.824 0-59.349-7.936-85.376-22.997-6.571-3.797-10.624-10.837-10.624-18.475s4.053-14.635 10.624-18.475c29.909-17.28 51.712-46.336 60.117-79.445-84.181-55.083-141.483-135.083-160.128-223.275h-70.613c-11.776 0-21.333-9.557-21.333-21.333v-170.667c0-11.733 9.557-21.333 21.333-21.333h101.973c41.045-77.355 111.147-137.984 196.693-174.549v-124.117c0-11.733 9.557-21.333 21.333-21.333s21.333 9.6 21.333 21.333v108.16c46.805-14.848 97.195-22.827 149.333-22.827 52.565 0 102.741 8.533 149.333 23.381v-108.715c0-11.733 9.557-21.333 21.333-21.333s21.333 9.6 21.333 21.333v124.587c132.523 57.045 225.195 171.136 233.515 304.128 49.152 9.515 86.485 52.736 86.485 104.619 0 11.776-9.557 21.333-21.333 21.333zM256 490.667c-23.552 0-42.667 19.157-42.667 42.667 0 23.552 19.115 42.667 42.667 42.667 23.509 0 42.667-19.115 42.667-42.667 0-23.509-19.157-42.667-42.667-42.667zM721.024 627.2c-4.181-5.547-10.581-8.533-17.067-8.533-4.437 0-8.96 1.408-12.8 4.309-57.003 42.837-127.915 63.787-199.083 59.093-11.605-0.811-21.931 8.064-22.699 19.84-0.811 11.733 8.107 21.931 19.883 22.699 81.579 5.376 162.347-18.56 227.541-67.541 9.429-7.083 11.307-20.437 4.224-29.867z" />
<glyph unicode="&#xe63c;" glyph-name="css-three" d="M1018.837 952.576c-4.096 4.736-9.941 7.424-16.171 7.424h-981.333c-6.229 0-12.117-2.688-16.171-7.424s-5.888-10.923-4.949-17.067l128-853.333c1.195-7.808 6.571-14.336 13.995-16.896l362.667-128c2.304-0.853 4.693-1.28 7.125-1.28 2.389 0 4.779 0.427 7.083 1.237l362.667 128c7.467 2.603 12.843 9.131 13.995 16.896l128 853.333c0.939 6.187-0.853 12.416-4.907 17.109zM757.632 749.696l-360.619-216.363h306.987c6.187 0 12.032-2.688 16.128-7.339 4.053-4.651 5.888-10.923 4.992-16.981l-42.667-298.667c-1.195-8.32-7.168-15.189-15.275-17.493l-149.333-42.667c-1.92-0.597-3.883-0.853-5.845-0.853-2.005 0-3.968 0.256-5.888 0.853l-149.333 42.667c-8.021 2.261-13.952 9.045-15.189 17.237l-19.712 128c-1.792 11.648 6.229 22.528 17.835 24.32 11.819 1.877 22.528-6.229 24.32-17.835l17.621-114.517 130.347-37.163 130.176 37.163 37.205 260.608h-359.381c-9.6 0-18.005 6.4-20.565 15.659-2.56 9.216 1.365 19.029 9.6 23.979l360.576 216.363h-392.277c-11.776 0-21.333 9.557-21.333 21.333s9.557 21.333 21.333 21.333h469.333c9.6 0 18.005-6.357 20.523-15.616 2.603-9.259-1.323-19.072-9.557-24.021z" />
<glyph unicode="&#xe63d;" glyph-name="html-five" d="M1018.837 952.576c-4.096 4.736-9.941 7.424-16.171 7.424h-981.333c-6.229 0-12.117-2.688-16.171-7.424s-5.888-10.923-4.949-17.067l128-853.333c1.195-7.808 6.571-14.336 13.995-16.896l362.667-128c2.304-0.853 4.693-1.28 7.125-1.28 2.389 0 4.779 0.427 7.083 1.237l362.667 128c7.467 2.603 12.843 9.131 13.995 16.896l128 853.333c0.939 6.187-0.853 12.416-4.907 17.109zM746.667 746.667h-444.16l35.541-213.333h365.952c6.187 0 12.032-2.688 16.128-7.339 4.053-4.651 5.888-10.923 4.992-16.981l-42.667-298.667c-1.195-8.32-7.168-15.189-15.275-17.493l-149.333-42.667c-1.92-0.597-3.883-0.853-5.845-0.853-2.005 0-3.968 0.256-5.888 0.853l-149.333 42.667c-8.021 2.261-13.952 9.045-15.189 17.237l-19.712 128c-1.792 11.648 6.229 22.528 17.835 24.32 11.904 1.877 22.528-6.229 24.32-17.835l17.621-114.517 130.347-37.163 130.176 37.163 37.205 260.608h-359.381c-10.453 0-19.328 7.552-21.035 17.835l-42.667 256c-1.067 6.144 0.683 12.501 4.736 17.28s10.027 7.552 16.299 7.552h469.333c11.776 0 21.333-9.557 21.333-21.333s-9.557-21.333-21.333-21.333z" />
<glyph unicode="&#xe63e;" glyph-name="script" d="M469.333 85.333c0 64.896 33.28 116.181 76.587 149.333h-396.587c-82.347 0-149.333-66.987-149.333-149.333s66.987-149.333 149.333-149.333h396.843c-43.392 33.152-76.843 84.352-76.843 149.333zM896 960h-533.333c-82.347 0-149.333-66.987-149.333-149.333v-533.333h448c11.776 0 21.333-9.557 21.333-21.333s-9.557-21.333-21.333-21.333c-62.379 0-149.333-56.832-149.333-149.333s86.955-149.333 149.333-149.333c82.347 0 149.333 66.987 149.333 149.333v704h192c11.776 0 21.333 9.557 21.333 21.333 0 87.979-52.651 149.333-128 149.333zM618.667 362.667h-234.667c-11.776 0-21.333 9.557-21.333 21.333s9.557 21.333 21.333 21.333h234.667c11.776 0 21.333-9.557 21.333-21.333s-9.557-21.333-21.333-21.333zM618.667 490.667h-234.667c-11.776 0-21.333 9.557-21.333 21.333s9.557 21.333 21.333 21.333h234.667c11.776 0 21.333-9.557 21.333-21.333s-9.557-21.333-21.333-21.333zM618.667 618.667h-234.667c-11.776 0-21.333 9.557-21.333 21.333s9.557 21.333 21.333 21.333h234.667c11.776 0 21.333-9.557 21.333-21.333s-9.557-21.333-21.333-21.333zM618.667 746.667h-234.667c-11.776 0-21.333 9.557-21.333 21.333s9.557 21.333 21.333 21.333h234.667c11.776 0 21.333-9.557 21.333-21.333s-9.557-21.333-21.333-21.333zM814.421 832c12.8 67.627 55.424 81.664 73.771 84.523 2.603 0.256 5.12 0.811 7.808 0.811 45.141 0 77.141-33.493 83.968-85.333h-165.547z" />
<glyph unicode="&#xe63f;" glyph-name="leaf" d="M956.075 889.643c-4.565 4.565-10.837 6.784-17.408 6.101-29.312-3.2-720.427-82.731-876.885-415.019-50.603-107.52-39.168-228.821 33.621-361.259l-31.616-31.659c-12.075-12.075-18.731-28.16-18.731-45.269s6.656-33.152 18.731-45.269 28.16-18.731 45.269-18.731 33.152 6.656 45.227 18.731l31.829 31.829c77.995-42.795 152.533-64.811 222.123-64.811 187.733 0 343.253 158.592 449.664 458.624 78.763 221.995 104.107 447.019 104.363 449.195 0.64 6.571-1.579 12.885-6.187 17.536zM178.987 82.432l-54.912-54.997c-0.085-0.043-0.171-0.043-0.256-0.128-8.107-7.893-21.589-7.893-29.653 0-0.085 0.085-0.213 0.085-0.256 0.128-8.277 8.277-8.405 21.845 0 30.208l143.104 143.147v204.459c0 11.776 9.557 21.333 21.333 21.333 11.733 0 21.333-9.557 21.333-21.333v-161.792l149.333 149.333v140.459c0 11.776 9.557 21.333 21.333 21.333 11.733 0 21.333-9.557 21.333-21.333v-97.835l128 128.043v55.083c0 11.776 9.557 21.333 21.333 21.333 11.733 0 21.333-9.557 21.333-21.333v-42.667h42.667c11.733 0 21.333-9.557 21.333-21.333 0-11.733-9.6-21.333-21.333-21.333h-55.211l-128-128h97.877c11.733 0 21.333-9.557 21.333-21.333 0-11.733-9.6-21.333-21.333-21.333h-140.544l-149.333-149.333h161.877c11.733 0 21.333-9.557 21.333-21.333 0-11.733-9.6-21.333-21.333-21.333h-204.544l-88.149-88.107z" />
<glyph unicode="&#xe640;" glyph-name="rocket" d="M1014.272 953.472c-4.864 4.907-11.819 7.168-18.603 6.016-19.2-3.243-189.184-32.683-237.867-81.408-22.528-22.485-288.811-289.493-422.101-423.168l180.736-180.181 422.4 422.315c48.725 48.683 78.165 218.667 81.365 237.824 1.195 6.827-1.024 13.739-5.931 18.603zM486.272 244.523l-180.693 180.181c-27.776-27.904-44.971-45.099-44.971-45.099-8.277-8.32-8.277-21.845 0.043-30.165l150.229-150.187c3.968-4.011 9.429-6.229 15.061-6.229 5.675 0 11.093 2.261 15.104 6.229l45.227 45.269zM688.939 350.72c0 8.661-5.205 16.427-13.141 19.755-8.021 3.328-17.195 1.493-23.253-4.651l-198.315-198.229c-3.413-3.328-5.589-7.851-6.144-12.672l-21.333-186.667c-1.024-9.003 3.755-17.664 11.904-21.675 2.987-1.408 6.144-2.091 9.301-2.091 5.547 0 11.008 2.176 15.104 6.229l150.827 150.827c20.267 20.267 54.016 64.341 65.493 98.816 13.312 39.851 11.392 93.355 10.112 128.768-0.299 8.32-0.555 15.744-0.555 21.589zM237.653 401.621l193.792 194.347c5.845 3.925 9.856 10.24 9.856 17.408 0 0.896-0.256 21.419-24.107 21.419-18.773 0-114.688-0.768-157.355-14.933-33.92-11.392-76.928-46.165-97.536-66.816l-150.827-150.827c-6.485-6.485-8.064-16.427-3.925-24.661 3.627-7.253 11.051-11.733 19.029-11.733 1.024 0 2.133 0.085 3.2 0.256l195.968 29.483c4.523 0.725 8.661 2.816 11.904 6.059zM290.219 289.792c-35.328 35.328-91.648 29.013-135.765-15.104-44.587-44.587-91.051-230.912-96.171-251.989-1.792-7.253 0.384-14.933 5.675-20.181 4.053-4.096 9.472-6.229 15.061-6.229 1.707 0 3.456 0.171 5.12 0.597 21.035 5.248 206.763 52.267 251.392 96.768 45.056 45.184 51.115 99.755 15.019 135.851l-60.331 60.288z" />
<glyph unicode="&#xe641;" glyph-name="diamond" d="M666.283 661.077l-154.283 257.195-154.325-257.195zM347.904 618.411l164.096-601.6 164.053 601.6zM720.299 618.411l-179.371-657.664 472.704 657.664zM10.325 618.411l472.704-657.664-179.371 657.664zM205.568 934.4l-195.2-273.323h280.576zM788.181 959.744h-251.307l161.536-269.269zM487.083 959.744h-244.736l83.84-268.288zM1013.632 661.077l-190.976 267.307-89.088-267.307z" />
<glyph unicode="&#xe642;" glyph-name="shield-7" d="M922.88 766.123c-3.115 0.853-315.691 86.101-416.811 187.349-8.021 8.021-22.827 8.021-30.848 0-101.035-101.248-413.653-186.496-416.768-187.349-9.344-2.517-15.787-10.923-15.787-20.565 0-365.611 32.469-657.28 440.576-808.491 2.432-0.896 4.907-1.323 7.424-1.323s4.992 0.427 7.424 1.323c408.107 151.211 440.576 442.88 440.576 808.491 0 9.643-6.443 18.048-15.787 20.565zM718.208 495.787l-112.085-99.883 42.24-155.733c2.432-8.875-1.109-18.219-8.747-23.296-7.637-5.12-17.621-4.736-24.875 0.896l-124.032 96-124.032-96.725c-3.84-3.029-8.491-4.48-13.141-4.48-4.096 0-8.192 1.195-11.776 3.541-7.68 5.077-11.221 14.464-8.789 23.296l42.24 156.715-112.043 99.669c-6.613 5.845-8.917 15.232-5.803 23.509 3.157 8.32 11.093 13.781 19.968 13.781h137.899l55.637 138.965c6.4 16.213 33.152 16.213 39.595 0l55.637-138.965h137.899c8.832 0 16.811-5.419 19.925-13.781 3.157-8.235 0.853-17.621-5.717-23.509z" />
<glyph unicode="&#xe643;" glyph-name="lightbulb-3" d="M490.667 959.744c-200.021 0-362.667-162.731-362.667-362.667 0-192.811 151.296-350.464 341.333-361.643v182.144l-27.563-27.605c-8.32-8.277-21.845-8.277-30.165 0l-64 64c-8.32 8.363-8.32 21.845 0 30.165 8.32 8.363 21.845 8.363 30.165 0l48.896-48.896 48.896 48.896c1.963 1.92 4.352 3.541 6.955 4.565 5.205 2.176 11.093 2.176 16.299 0 2.645-1.024 4.992-2.645 6.955-4.565l48.896-48.896 48.896 48.896c8.32 8.363 21.845 8.363 30.165 0 8.32-8.32 8.32-21.803 0-30.165l-64-64c-4.181-4.139-9.643-6.229-15.104-6.229s-10.923 2.091-15.104 6.229l-27.52 27.605v-182.144c189.995 11.136 341.333 168.832 341.333 361.643 0 199.936-162.688 362.667-362.667 362.667zM597.333 191.744h-213.333c-11.776 0-21.333-9.557-21.333-21.333s9.557-21.333 21.333-21.333h213.333c11.733 0 21.333 9.557 21.333 21.333s-9.6 21.333-21.333 21.333zM597.333 106.411h-213.333c-11.776 0-21.333-9.557-21.333-21.333s9.557-21.333 21.333-21.333h213.333c11.733 0 21.333 9.557 21.333 21.333s-9.6 21.333-21.333 21.333zM597.333 21.077h-213.333c-11.776 0-21.333-9.557-21.333-21.333s9.557-21.333 21.333-21.333h85.333v-21.333c0-11.776 9.557-21.333 21.333-21.333 11.733 0 21.333 9.557 21.333 21.333v21.333h85.333c11.733 0 21.333 9.557 21.333 21.333s-9.6 21.333-21.333 21.333z" />
<glyph unicode="&#xe644;" glyph-name="arrow-down-7" d="M1009.92 544c-17.707 15.616-44.672 13.824-60.203-3.84l-394.624-448.427v825.6c0 23.552-19.115 42.667-42.667 42.667-23.595 0-42.667-19.115-42.667-42.667v-825.6l-394.667 448.427c-15.531 17.664-42.496 19.456-60.203 3.84-17.664-15.531-19.413-42.496-3.84-60.203l469.333-533.333c0.299-0.299 0.64-0.512 0.896-0.811 1.195-1.323 2.56-2.517 3.925-3.627 0.896-0.725 1.707-1.493 2.645-2.176 1.493-1.024 3.157-1.92 4.779-2.773 0.896-0.512 1.749-1.024 2.688-1.451 1.963-0.896 4.053-1.451 6.187-2.048 0.725-0.171 1.365-0.512 2.091-0.64 2.816-0.597 5.76-0.939 8.832-0.939s6.016 0.341 8.832 0.939c0.768 0.128 1.408 0.469 2.133 0.64 2.091 0.597 4.224 1.152 6.187 2.048 0.896 0.427 1.749 0.939 2.645 1.451 1.664 0.896 3.328 1.749 4.821 2.773 0.896 0.683 1.749 1.451 2.645 2.176 1.365 1.109 2.688 2.304 3.925 3.627 0.299 0.299 0.64 0.512 0.896 0.811l469.333 533.333c15.488 17.707 13.781 44.672-3.925 60.203z" />
<glyph unicode="&#xe645;" glyph-name="arrow-down-12" d="M512 128c-12.544 0-24.448 5.547-32.555 15.104l-469.333 554.667c-15.232 17.963-12.971 44.885 4.992 60.16 18.005 15.147 44.928 13.013 60.117-5.035l436.779-516.181 436.779 516.181c15.232 18.048 42.112 20.224 60.117 5.035 17.963-15.232 20.224-42.155 4.992-60.117l-469.333-554.667c-8.064-9.6-20.011-15.147-32.555-15.147z" />
<glyph unicode="&#xe646;" glyph-name="arrow-down-left-7" d="M817.024 149.333h-586.453l601.557 601.557c16.683 16.683 16.683 43.648 0 60.331s-43.648 16.683-60.331 0l-600.661-600.619v585.515c0 23.595-19.072 42.667-42.667 42.667s-42.667-19.072-42.667-42.667v-687.104c-0.128-3.499 0.085-6.955 0.853-10.411 3.712-19.669 20.992-34.603 41.813-34.603h688.597c23.595 0 42.667 19.115 42.667 42.667-0.043 23.595-19.115 42.667-42.709 42.667z" />
<glyph unicode="&#xe647;" glyph-name="arrow-down-right-7" d="M939.051 838.784c-23.595 0-42.667-19.072-42.667-42.667v-585.557l-600.661 600.661c-16.683 16.683-43.648 16.683-60.331 0s-16.683-43.648 0-60.331l601.515-601.557h-586.453c-23.595 0-42.667-19.072-42.667-42.667 0-23.552 19.072-42.667 42.667-42.667h688.597c20.779 0 38.101 14.933 41.813 34.645 0.768 3.456 0.939 6.912 0.853 10.411v687.061c0 23.595-19.072 42.667-42.667 42.667z" />
<glyph unicode="&#xe648;" glyph-name="arrow-left-7" d="M981.76 490.667h-828.971l431.104 395.221c17.365 15.915 18.56 42.923 2.645 60.288-15.915 17.323-42.923 18.56-60.288 2.645l-512-469.333c-0.256-0.213-0.384-0.512-0.64-0.725-1.237-1.152-2.304-2.517-3.371-3.84-0.768-0.896-1.536-1.664-2.176-2.603-1.067-1.621-2.005-3.371-2.859-5.077-0.427-0.811-0.896-1.493-1.237-2.347-0.939-2.176-1.621-4.437-2.219-6.741-0.085-0.512-0.341-0.939-0.427-1.408-0.555-2.816-0.896-5.76-0.896-8.747s0.341-5.931 0.896-8.747c0.085-0.512 0.299-0.896 0.427-1.365 0.597-2.347 1.237-4.651 2.219-6.827 0.341-0.811 0.853-1.493 1.237-2.304 0.896-1.749 1.792-3.456 2.859-5.077 0.64-0.896 1.408-1.707 2.133-2.603 1.109-1.323 2.176-2.688 3.413-3.84 0.256-0.256 0.384-0.512 0.64-0.725l512-469.333c8.149-7.467 18.517-11.179 28.843-11.179 11.52 0 23.040 4.651 31.445 13.824 15.915 17.365 14.763 44.331-2.645 60.288l-431.104 395.221h828.971c23.552 0 42.667 19.072 42.667 42.667 0 23.552-19.115 42.667-42.667 42.667z" />
<glyph unicode="&#xe649;" glyph-name="arrow-left-12" d="M789.333-64c-9.728 0-19.541 3.328-27.563 10.069l-554.667 469.333c-9.6 8.149-15.104 20.053-15.104 32.597s5.504 24.448 15.104 32.597l554.667 469.333c18.005 15.147 44.928 13.013 60.117-5.035 15.232-17.963 12.971-44.885-4.992-60.117l-516.181-436.779 516.181-436.736c17.963-15.232 20.224-42.155 4.992-60.117-8.448-10.027-20.437-15.147-32.555-15.147z" />
<glyph unicode="&#xe64a;" glyph-name="arrow-right-7" d="M1023.488 456.747c-0.085 0.469-0.341 0.896-0.427 1.408-0.597 2.347-1.237 4.565-2.219 6.741-0.341 0.853-0.853 1.536-1.237 2.347-0.896 1.707-1.792 3.456-2.859 5.077-0.683 0.896-1.451 1.707-2.176 2.603-1.067 1.323-2.176 2.688-3.371 3.84-0.256 0.213-0.427 0.512-0.64 0.725l-512 469.333c-17.365 15.915-44.373 14.72-60.288-2.645s-14.763-44.373 2.645-60.288l431.104-395.221h-828.928c-23.595 0-42.667-19.115-42.667-42.667 0-23.595 19.072-42.667 42.667-42.667h828.971l-431.104-395.221c-17.365-15.957-18.56-42.923-2.645-60.288 8.405-9.216 19.883-13.824 31.445-13.824 10.325 0 20.608 3.712 28.843 11.221l512 469.333c0.213 0.213 0.384 0.469 0.64 0.725 1.237 1.152 2.304 2.517 3.413 3.84 0.725 0.896 1.451 1.664 2.133 2.603 1.067 1.621 2.005 3.328 2.859 5.077 0.427 0.811 0.896 1.493 1.237 2.304 0.939 2.176 1.621 4.48 2.219 6.827 0.085 0.469 0.341 0.896 0.427 1.365 0.555 2.773 0.896 5.717 0.896 8.704s-0.341 5.931-0.939 8.747z" />
<glyph unicode="&#xe64b;" glyph-name="arrow-right-12" d="M234.667-64c-12.117 0-24.149 5.12-32.597 15.104-15.232 17.963-12.971 44.885 4.992 60.117l516.224 436.779-516.181 436.736c-17.963 15.275-20.224 42.197-4.992 60.16 15.189 18.048 42.112 20.224 60.117 5.035l554.667-469.333c9.6-8.107 15.104-20.053 15.104-32.597s-5.504-24.448-15.104-32.597l-554.667-469.333c-8.021-6.741-17.792-10.069-27.563-10.069z" />
<glyph unicode="&#xe64c;" glyph-name="arrow-up-7" d="M1013.76 412.16l-469.333 533.333c-0.256 0.299-0.555 0.512-0.853 0.768-1.621 1.792-3.456 3.371-5.376 4.864-0.213 0.128-0.427 0.341-0.597 0.512-7.083 5.205-15.744 8.363-25.173 8.363s-18.091-3.157-25.173-8.363c-0.213-0.171-0.427-0.384-0.64-0.512-1.92-1.493-3.755-3.072-5.376-4.864-0.299-0.256-0.64-0.469-0.896-0.768l-469.333-533.333c-15.573-17.664-13.824-44.629 3.84-60.203 17.707-15.573 44.672-13.824 60.203 3.84l394.709 448.469v-825.6c0-23.595 19.072-42.667 42.667-42.667 23.552 0 42.667 19.072 42.667 42.667v825.6l394.624-448.469c8.405-9.6 20.224-14.464 32.043-14.464 9.984 0 20.096 3.499 28.16 10.624 17.707 15.573 19.413 42.539 3.84 60.203z" />
<glyph unicode="&#xe64d;" glyph-name="arrow-up-12" d="M64 128c-9.429 0-18.901 3.072-26.795 9.472-18.347 14.848-21.205 41.685-6.357 59.989l448 554.667c7.979 9.899 19.968 15.701 32.683 15.872 11.52-1.024 24.832-5.376 33.024-15.104l469.333-554.667c15.232-17.963 12.971-44.885-4.992-60.117-18.005-15.147-44.928-13.013-60.117 5.035l-435.968 515.243-415.616-514.517c-8.405-10.453-20.779-15.872-33.195-15.872z" />
<glyph unicode="&#xe64e;" glyph-name="logo-amazon-2" d="M1014.016 151.424c-0.299 6.827-1.365 12.16-4.821 18.389-0.213 0.384-0.597 0.597-0.811 0.981-27.947 49.536-153.003 82.432-239.701 47.872-21.888-8.789-32.555-33.536-23.851-55.424 8.747-21.888 33.493-32.555 55.424-23.851 22.315 8.917 47.232 9.899 69.845 7.424-451.883-201.045-779.989 30.037-794.453 40.533-19.072 13.952-45.696 9.771-59.648-9.216-13.909-19.029-9.771-45.739 9.216-59.648 11.349-8.277 195.072-139.264 476.288-139.264 116.693 0 250.368 23.211 395.221 86.443-12.928-16.597-28.459-31.872-45.397-40.832-20.821-10.965-28.8-36.821-17.792-57.643 7.637-14.507 22.443-22.784 37.76-22.784 6.699 0 13.525 1.579 19.883 4.949 66.645 35.157 134.357 136.917 122.837 202.069zM528.512 621.611c-193.92-14.549-368.341-46.763-368.341-246.912 0-127.915 82.347-192.853 186.368-192.853 89.216 0 140.117 21.803 205.781 91.008 23.851-32.512 30.379-47.701 71.509-82.347 10.837-4.267 21.675-4.267 30.336 2.176 25.984 21.675 71.552 60.757 95.317 82.304 10.837 8.704 8.661 21.717 2.176 32.469-23.808 30.379-47.659 56.363-47.659 114.859v194.987c0 82.347 6.485 158.208-54.187 214.4-49.792 45.525-127.829 62.933-188.501 62.933-138.795 0-253.995-56.747-279.509-190.677-4.309-17.323 8.704-23.808 17.408-25.984l121.301-15.104c13.056 2.133 19.499 13.013 21.675 23.808 11.179 49.195 54.571 75.861 101.845 75.861 26.027 0 54.187-10.923 69.333-32.512 18.048-27.136 15.147-62.379 15.147-108.416zM504.661 363.819c-41.387-82.56-162.517-82.773-162.517 32.512 0 69.333 41.173 101.845 93.184 116.992 28.16 6.485 60.672 8.704 93.184 8.704v-25.984c0-49.877 2.176-88.875-23.851-132.224z" />
<glyph unicode="&#xe64f;" glyph-name="logo-dribbble" d="M581.376 554.496c21.888-41.173 40.704-83.755 56.917-127.445 65.749 12.843 133.12 19.584 201.899 19.584 44.715 0 112.469-5.547 161.792-11.563 3.499 122.283-37.419 234.752-110.464 323.797-93.056-86.784-197.632-155.904-310.144-204.373zM840.192 403.968c-63.829 0-126.421-6.187-187.563-17.707 33.536-102.955 51.371-211.499 51.371-322.261 0-15.36-1.109-42.965-2.475-68.651 160.555 67.285 277.504 217.515 297.771 397.056-48.384 6.016-116.565 11.563-159.104 11.563zM27.349 520.875c50.091-5.589 106.752-8.875 143.317-8.875 120.363 0 238.251 22.059 349.44 63.829-66.304 111.787-155.093 210.688-261.547 291.797-122.197-74.027-209.28-199.595-231.211-346.752zM657.92-20.608c1.664 29.227 3.413 66.645 3.413 84.608 0 107.733-17.707 213.248-50.731 313.301-170.709-40.149-328.448-126.037-466.133-253.653 89.899-101.76 221.013-166.315 367.531-166.315 50.816 0 99.84 7.723 145.92 22.059zM596.352 417.835c-15.616 41.301-33.877 81.579-54.784 120.491-117.845-45.099-242.987-68.992-370.901-68.992-38.613 0-96.043 3.456-147.797 9.259-0.64-10.197-1.536-20.267-1.536-30.592 0-109.099 36.053-209.536 96.256-291.029 141.483 130.56 303.445 218.88 478.763 260.864zM299.691 889.813c105.856-83.712 194.133-184.704 260.437-298.069 109.909 46.763 212.053 114.048 302.805 198.827-89.088 91.264-213.291 148.096-350.933 148.096-76.16 0-147.968-17.835-212.309-48.853z" />
<glyph unicode="&#xe650;" glyph-name="logo-github" d="M895.488 524.203l1.365-0.939c0 0 112.896 195.029-25.771 308.779-85.333 0-215.851-140.971-215.851-140.971l0.939-0.64c-106.24 31.232-225.493 31.445-331.989 0.683-0.64 0.725-130.603 140.885-215.723 140.885-135.424-111.061-31.104-299.179-26.197-307.925-43.435-65.109-67.115-146.475-59.563-245.035 10.283-133.376 121.515-279.040 255.232-279.040h421.888c133.803 0 244.992 145.664 255.232 279.040 7.637 98.645-16.043 180.053-59.563 245.163zM659.584 85.333h-341.333c-82.475 0-149.333 66.859-149.333 149.333 0 252.032 176 150.656 320 150.656 143.957 0 320 104.021 320-150.656 0-82.475-66.816-149.333-149.333-149.333zM681.771 234.667c0-35.346-19.103-64-42.667-64s-42.667 28.654-42.667 64c0 35.346 19.103 64 42.667 64s42.667-28.654 42.667-64zM383.104 234.667c0-35.346-19.103-64-42.667-64s-42.667 28.654-42.667 64c0 35.346 19.103 64 42.667 64s42.667-28.654 42.667-64z" />
<glyph unicode="&#xe651;" glyph-name="logo-google-drive" d="M368.213 256c-61.44-107.989-121.088-212.736-145.707-256h621.568l145.963 256h-621.824zM329.899 809.899l-308.565-535.595 152.064-274.304c0 0 229.973 404.181 307.456 539.947-62.891 112.597-125.056 223.872-150.955 269.952zM966.229 298.667l-309.632 554.197h-301.909c11.648-20.096 235.477-421.205 309.717-554.197h301.824z" />
<glyph unicode="&#xe652;" glyph-name="check-1" d="M1005.909 952.149c-19.285 13.611-45.867 8.96-59.435-10.283l-632.149-897.195-241.493 241.451c-16.64 16.683-43.691 16.683-60.331 0-16.683-16.725-16.683-43.691 0-60.331l277.333-277.333c8.021-8.021 18.901-12.501 30.165-12.501 13.568 0 26.752 6.528 34.859 18.091l661.333 938.667c13.568 19.285 8.96 45.909-10.283 59.435z" />
<glyph unicode="&#xe653;" glyph-name="video-clip-3" d="M21.333 789.333h-21.333v-682.667h1024v682.667h-1002.667zM512 192c-141.141 0-256 114.816-256 256s114.859 256 256 256 256-114.816 256-256-114.859-256-256-256zM1002.667 960h-277.333v-128h298.667v106.667c0 11.776-9.557 21.333-21.333 21.333zM341.333 960h341.333v-128h-341.333v128zM0 64v-106.667c0-11.776 9.557-21.333 21.333-21.333h277.333v128h-298.667zM298.667 832v128h-277.333c-11.776 0-21.333-9.557-21.333-21.333v-106.667h298.667zM341.333 64h341.333v-128h-341.333v128zM725.333 64v-128h277.333c11.776 0 21.333 9.557 21.333 21.333v106.667h-298.667zM628.224 467.072l-170.667 85.333c-6.613 3.285-14.464 2.944-20.779-0.939-6.272-3.883-10.112-10.752-10.112-18.133v-170.667c0-7.424 3.84-14.251 10.112-18.176 3.456-2.133 7.339-3.157 11.221-3.157 3.285 0 6.528 0.768 9.557 2.261l170.667 85.333c7.211 3.627 11.776 11.008 11.776 19.072s-4.565 15.445-11.776 19.072z" />
<glyph unicode="&#xe654;" glyph-name="check-circle-1" d="M1007.915 950.699c-18.475 14.677-45.312 11.563-59.947-6.869l-546.219-687.872-179.499 179.499c-16.683 16.683-43.691 16.683-60.331 0-16.683-16.725-16.683-43.691 0-60.331l213.333-213.333c8.021-8.021 18.859-12.501 30.165-12.501 0.811 0 1.621 0.043 2.432 0.085 12.16 0.683 23.424 6.528 31.019 16.043l576 725.333c14.549 18.475 11.52 45.269-6.955 59.947zM791.509 489.771c-22.955-5.248-37.333-28.117-32.085-51.072 5.717-24.96 8.619-50.56 8.619-76.075 0-188.203-153.131-341.333-341.333-341.333s-341.333 153.131-341.333 341.333 153.131 341.333 341.333 341.333c53.248 0 104.277-11.947 151.68-35.499 21.077-10.539 46.72-1.877 57.216 19.243 10.496 21.077 1.877 46.72-19.243 57.173-59.307 29.483-123.093 44.416-189.653 44.416-235.264 0-426.667-191.36-426.667-426.667 0-235.264 191.403-426.667 426.667-426.667s426.667 191.403 426.667 426.667c0 31.915-3.627 63.915-10.752 95.104-5.248 22.955-28.075 37.376-51.115 32.043z" />
<glyph unicode="&#xe655;" glyph-name="play-button" d="M42.667 448c0 31.616 3.157 63.275 9.429 94.080 2.347 11.563-5.12 22.827-16.64 25.131-11.563 2.347-22.827-5.12-25.131-16.64-6.869-33.579-10.325-68.053-10.325-102.571 0-78.165 17.152-153.216 51.029-223.061 3.669-7.637 11.307-12.032 19.2-12.032 3.115 0 6.272 0.683 9.301 2.133 10.624 5.163 15.019 17.92 9.856 28.501-30.976 64-46.72 132.779-46.72 204.459zM60.075 640.64c2.987-1.451 6.144-2.091 9.216-2.091 7.979 0 15.573 4.437 19.243 12.117 44.288 92.331 118.869 168.832 210.048 215.424 10.496 5.376 14.635 18.219 9.301 28.715-5.376 10.453-18.219 14.592-28.715 9.259-99.456-50.816-180.821-134.272-229.077-234.965-5.12-10.624-0.64-23.381 9.984-28.459zM967.040 563.541c2.475-9.643 11.136-16.085 20.651-16.085 1.749 0 3.499 0.213 5.248 0.64 11.435 2.901 18.347 14.507 15.445 25.899-27.349 107.989-90.752 205.824-178.56 275.413-9.216 7.381-22.656 5.76-29.952-3.456-7.339-9.259-5.76-22.656 3.456-29.952 80.512-63.829 138.624-153.472 163.712-252.459zM406.187 905.344c99.797 23.040 206.208 12.629 299.392-29.611 2.859-1.28 5.845-1.877 8.789-1.877 8.107 0 15.872 4.651 19.456 12.501 4.864 10.709 0.085 23.381-10.624 28.245-101.632 46.037-217.643 57.387-326.571 32.341-11.52-2.645-18.688-14.123-16.043-25.6s13.995-18.688 25.6-16zM804.864 81.195c-81.109-64.853-178.859-100.267-282.752-102.4-11.776-0.256-21.163-9.984-20.907-21.76 0.256-11.648 9.771-20.907 21.333-20.907 0.128 0 0.299 0 0.427 0 113.365 2.389 220.075 41.003 308.523 111.744 9.216 7.339 10.709 20.779 3.371 29.995-7.339 9.173-20.821 10.709-29.995 3.328zM408.064-9.771c-99.541 22.528-190.677 78.336-256.512 157.184-7.552 9.045-20.992 10.283-30.037 2.688-9.045-7.552-10.24-20.992-2.688-30.037 71.808-86.016 171.179-146.859 279.851-171.477 1.579-0.384 3.157-0.512 4.736-0.512 9.771 0 18.56 6.741 20.779 16.64 2.56 11.477-4.651 22.869-16.128 25.515zM1002.667 450.005h21.333c0 11.776-9.557 20.352-21.333 20.352s-21.333-10.539-21.333-22.315c0-104.021-33.323-202.539-96.341-284.971-7.168-9.344-5.376-22.699 3.968-29.867 3.883-2.944 8.405-4.437 12.928-4.437 6.4 0 12.757 2.901 16.939 8.405 68.821 89.856 105.173 197.376 105.173 311.509l-21.333 1.323zM512 789.333c-188.203 0-341.333-153.131-341.333-341.333s153.131-341.333 341.333-341.333 341.333 153.131 341.333 341.333-153.131 341.333-341.333 341.333zM689.749 429.227l-276.011-149.333c-3.157-1.707-6.656-2.56-10.155-2.56-3.797 0-7.552 0.981-10.923 2.987-6.443 3.84-10.411 10.795-10.411 18.347v298.667c0 7.509 3.968 14.464 10.411 18.347 6.4 3.84 14.421 4.011 21.077 0.427l276.011-149.333c6.912-3.712 11.179-10.923 11.179-18.773s-4.309-15.061-11.179-18.773z" />
<glyph unicode="&#xe900;" glyph-name="select" d="M533.696-40.48c-11.936-12.928-31.488-12.928-43.424 0l-311.040 336.96c-11.936 12.928-7.296 23.52 10.304 23.52h644.928c17.6 0 22.24-10.592 10.304-23.52l-311.072-336.96zM490.304 936.48c11.936 12.928 31.488 12.928 43.424 0l311.040-336.96c11.936-12.928 7.296-23.52-10.304-23.52h-644.928c-17.6 0-22.24 10.592-10.304 23.52l311.072 336.96z" />
<glyph unicode="&#xe901;" glyph-name="control-play" d="M1013.504 467.072l-981.333 490.667c-6.571 3.243-14.421 2.987-20.736-0.939-6.272-3.883-10.112-10.752-10.112-18.133v-981.333c0-7.424 3.84-14.251 10.112-18.176 3.413-2.133 7.296-3.157 11.221-3.157 3.285 0 6.528 0.768 9.557 2.261l981.333 490.667c7.211 3.627 11.776 11.008 11.776 19.072s-4.565 15.445-11.819 19.072z" />
<glyph unicode="&#xe902;" glyph-name="close" d="M572.416 447.957l439.125 439.168c16.683 16.597 16.683 43.605 0 60.331-16.683 16.683-43.691 16.683-60.331 0l-439.168-439.168-439.168 439.168c-16.683 16.683-43.691 16.683-60.331 0-16.683-16.725-16.683-43.691 0-60.331l439.125-439.168-439.125-439.168c-16.683-16.725-16.683-43.691 0-60.331 8.32-8.32 19.243-12.501 30.165-12.501s21.845 4.181 30.165 12.501l439.168 439.168 439.168-439.168c8.32-8.32 19.243-12.501 30.165-12.501s21.845 4.181 30.165 12.501c16.683 16.64 16.683 43.605 0 60.331l-439.125 439.168z" />
</font>
</defs>
</svg>
